<svg width="23" height="23" viewBox="0 0 23 23" fill="none" xmlns="http://www.w3.org/2000/svg">
<g clip-path="url(#clip0_298_476)">
<path d="M11.5001 22.9898L10.8547 22.4196C8.83625 20.6342 2.25 14.4386 2.25 9.66126C2.25 4.3291 6.39975 -0.00927734 11.5001 -0.00927734C16.6004 -0.00927734 20.7502 4.3291 20.7502 9.66126C20.7502 14.4386 14.1639 20.6342 12.1454 22.4196L11.5001 22.9898ZM11.5001 0.949056C6.90483 0.949056 3.16667 4.85714 3.16667 9.66126C3.16667 14.1386 10.0637 20.4646 11.446 21.6883L11.5001 21.7363L11.5542 21.6883C12.9365 20.4655 19.8335 14.1386 19.8335 9.66126C19.8335 4.85714 16.0953 0.949056 11.5001 0.949056Z" fill="#989898"/>
<path d="M11.5002 13.4074C9.478 13.4074 7.8335 11.6881 7.8335 9.57406C7.8335 7.45997 9.478 5.74072 11.5002 5.74072C13.5223 5.74072 15.1668 7.45997 15.1668 9.57406C15.1668 11.6881 13.5223 13.4074 11.5002 13.4074ZM11.5002 6.69906C9.984 6.69906 8.75016 7.98897 8.75016 9.57406C8.75016 11.1591 9.984 12.4491 11.5002 12.4491C13.0163 12.4491 14.2502 11.1591 14.2502 9.57406C14.2502 7.98897 13.0163 6.69906 11.5002 6.69906Z" fill="#989898"/>
</g>
<defs>
<clipPath id="clip0_298_476">
<rect width="22" height="23" fill="white" transform="translate(0.5 -0.00927734)"/>
</clipPath>
</defs>
</svg>
