<svg width="20" height="20" viewBox="0 0 20 20" fill="none" xmlns="http://www.w3.org/2000/svg">
<g clip-path="url(#clip0_298_472)">
<path d="M19.5833 9.60042C19.3533 9.60042 19.1667 9.42309 19.1667 9.20459C19.1667 5.05784 15.615 1.68376 11.25 1.68376C11.02 1.68376 10.8333 1.50642 10.8333 1.28792C10.8333 1.06942 11.02 0.89209 11.25 0.89209C16.075 0.89209 20 4.62084 20 9.20459C20 9.42309 19.8133 9.60042 19.5833 9.60042ZM16.6667 9.20459C16.6667 6.36726 14.2367 4.05876 11.25 4.05876C11.02 4.05876 10.8333 4.23609 10.8333 4.45459C10.8333 4.67309 11.02 4.85042 11.25 4.85042C13.7775 4.85042 15.8333 6.80346 15.8333 9.20459C15.8333 9.42309 16.02 9.60042 16.25 9.60042C16.48 9.60042 16.6667 9.42309 16.6667 9.20459ZM18.5283 18.5233L19.3433 17.6327C19.7667 17.2305 20 16.6953 20 16.1269C20 15.5585 19.7667 15.0225 19.3025 14.5871L17.2642 13.1043C16.3908 12.2747 14.97 12.2739 14.095 13.102L12.8183 14.2847C9.75167 13.098 7.25333 10.7222 5.90667 7.71151L7.14667 6.50422C8.02083 5.67376 8.02083 4.32238 7.1825 3.53071L5.55 1.51751C4.7025 0.712382 3.20583 0.731382 2.4 1.4993L1.42167 2.30996C0.504167 3.17684 0 4.35405 0 5.62309C0 11.7577 8.5625 19.8921 15.02 19.8921C16.3558 19.8921 17.5942 19.4131 18.5283 18.5233ZM4.92417 2.03684L6.55667 4.05005C7.10583 4.57176 7.10583 5.42122 6.55333 5.94688L5.11833 7.34496C5.00333 7.45738 4.96833 7.62363 5.03 7.7693C6.47083 11.1774 9.29083 13.8556 12.7683 15.116C12.92 15.1714 13.0917 15.1373 13.2075 15.0305L14.6792 13.6672C14.6792 13.6672 14.6817 13.6648 14.6825 13.6633C15.215 13.1566 16.1025 13.1241 16.7158 13.6973L18.7542 15.1801C19.3033 15.7018 19.3033 16.5505 18.735 17.0928L17.9192 17.9834C17.1625 18.7038 16.1325 19.1004 15.02 19.1004C9.05333 19.1004 0.833333 11.2914 0.833333 5.62309C0.833333 4.56621 1.25083 3.58771 1.98917 2.88709L2.96833 2.07563C3.24833 1.80963 3.6175 1.6798 3.98083 1.6798C4.33 1.6798 4.67333 1.80013 4.925 2.03763L4.92417 2.03684Z" fill="#989898"/>
</g>
<defs>
<clipPath id="clip0_298_472">
<rect width="20" height="19" fill="white" transform="translate(0 0.89209)"/>
</clipPath>
</defs>
</svg>
