<svg width="24" height="24" viewBox="0 0 24 24" fill="none" xmlns="http://www.w3.org/2000/svg">
<g clip-path="url(#clip0_298_474)">
<path d="M15.7308 8.43405C16.1218 10.1437 15.3647 11.8543 13.8477 12.69C12.9909 13.1625 12.4792 13.9608 12.4792 14.8242V15.0811H11.5208V14.8242C11.5208 13.6062 12.2185 12.4945 13.3857 11.8505C14.5243 11.2228 15.0916 9.93576 14.7974 8.6468C14.5626 7.61755 13.7135 6.76847 12.6842 6.53368C11.8016 6.33243 10.8989 6.53176 10.2098 7.08185C9.52079 7.63097 9.12596 8.4513 9.12596 9.33105H8.16763C8.16763 8.15805 8.69375 7.0646 9.61279 6.33339C10.5309 5.60026 11.7278 5.33289 12.898 5.60026C14.299 5.91939 15.4126 7.03297 15.7317 8.43405H15.7308ZM12 16.9977C11.471 16.9977 11.0417 17.4271 11.0417 17.9561C11.0417 18.4851 11.471 18.9144 12 18.9144C12.529 18.9144 12.9583 18.4851 12.9583 17.9561C12.9583 17.4271 12.529 16.9977 12 16.9977ZM23.5 12.2061C23.5 18.5473 18.3413 23.7061 12 23.7061C5.65871 23.7061 0.5 18.5473 0.5 12.2061C0.5 5.86476 5.65871 0.706055 12 0.706055C18.3413 0.706055 23.5 5.86476 23.5 12.2061ZM22.5417 12.2061C22.5417 6.39376 17.8123 1.66439 12 1.66439C6.18771 1.66439 1.45833 6.39376 1.45833 12.2061C1.45833 18.0183 6.18771 22.7477 12 22.7477C17.8123 22.7477 22.5417 18.0183 22.5417 12.2061Z" fill="#989898"/>
</g>
<defs>
<clipPath id="clip0_298_474">
<rect width="23" height="23" fill="white" transform="translate(0.5 0.706055)"/>
</clipPath>
</defs>
</svg>
