<svg width="23" height="23" viewBox="0 0 23 23" fill="none" xmlns="http://www.w3.org/2000/svg">
<g clip-path="url(#clip0_298_470)">
<path d="M9.10417 10.6327C8.83967 10.6327 8.625 10.4273 8.625 10.1743C8.625 9.06057 7.88612 7.88265 7.1875 7.88265C6.48887 7.88265 5.75 9.06057 5.75 10.1743C5.75 10.4273 5.53533 10.6327 5.27083 10.6327C5.00633 10.6327 4.79167 10.4273 4.79167 10.1743C4.79167 8.65998 5.81612 6.96598 7.1875 6.96598C8.55888 6.96598 9.58333 8.65998 9.58333 10.1743C9.58333 10.4273 9.36867 10.6327 9.10417 10.6327ZM18.2083 10.1743C18.2083 8.65998 17.1839 6.96598 15.8125 6.96598C14.4411 6.96598 13.4167 8.65998 13.4167 10.1743C13.4167 10.4273 13.6313 10.6327 13.8958 10.6327C14.1603 10.6327 14.375 10.4273 14.375 10.1743C14.375 9.06057 15.1139 7.88265 15.8125 7.88265C16.5111 7.88265 17.25 9.06057 17.25 10.1743C17.25 10.4273 17.4647 10.6327 17.7292 10.6327C17.9937 10.6327 18.2083 10.4273 18.2083 10.1743ZM23 11.5493C23 5.48373 17.8413 0.549316 11.5 0.549316C5.15871 0.549316 0 5.48373 0 11.5493C0 17.6149 5.15871 22.5493 11.5 22.5493C17.8413 22.5493 23 17.6149 23 11.5493ZM22.0417 11.5493C22.0417 17.1089 17.3123 21.6327 11.5 21.6327C5.68771 21.6327 0.958333 17.1089 0.958333 11.5493C0.958333 5.98973 5.68771 1.46598 11.5 1.46598C17.3123 1.46598 22.0417 5.98973 22.0417 11.5493ZM17.0727 15.1133C17.2778 14.9538 17.3085 14.666 17.1427 14.4698C16.9759 14.2746 16.674 14.2443 16.469 14.402C16.4469 14.4194 14.1977 16.1336 11.499 16.1336C8.80037 16.1336 6.55212 14.4194 6.52913 14.402C6.32212 14.2443 6.02313 14.2746 5.85542 14.4698C5.68962 14.666 5.72029 14.9538 5.92537 15.1133C6.02696 15.1931 8.45346 17.0493 11.4981 17.0493C14.5427 17.0493 16.9692 15.1931 17.0708 15.1133H17.0727Z" fill="#989898"/>
</g>
<defs>
<clipPath id="clip0_298_470">
<rect width="23" height="22" fill="white" transform="translate(0 0.549316)"/>
</clipPath>
</defs>
</svg>
