<svg width="26" height="25" viewBox="0 0 26 25" fill="none" xmlns="http://www.w3.org/2000/svg">
<g clip-path="url(#clip0_81_146)">
<path d="M15.3132 1.83286C14.8757 1.45786 14.8236 0.80161 15.1986 0.36411C15.5736 -0.07339 16.2298 -0.125473 16.6673 0.23911C16.7715 0.33286 17.334 0.83286 17.8236 1.58286C17.9486 1.35369 18.0944 1.12453 18.2923 0.92661C18.9381 0.280777 19.8652 0.0724434 20.5007 -0.000473289C20.8965 -0.04214 21.2402 0.30161 21.1986 0.697443C21.1361 1.33286 20.9173 2.24953 20.2715 2.90578C20.1673 3.00994 20.0423 3.10369 19.9277 3.18703C22.3965 3.47869 24.334 5.66619 24.334 8.33286C24.334 9.05161 24.1882 9.75994 23.9173 10.4058H16.7402C16.9382 9.72869 17.0423 9.03078 17.0423 8.33286C17.0423 6.33286 16.2611 4.52036 15.0007 3.20786C15.2402 3.16619 15.4902 3.12453 15.7402 3.12453H16.3132C16.0319 2.54119 15.5527 2.03078 15.3236 1.82244L15.3132 1.83286ZM14.5319 10.4162C14.8027 9.77036 14.9486 9.06203 14.9486 8.34328C14.9486 5.66619 13.0111 3.47869 10.5423 3.19744C10.6569 3.11411 10.7819 3.02036 10.8861 2.91619C11.5423 2.25994 11.7507 1.34328 11.8132 0.70786C11.8548 0.312027 11.5111 -0.0317233 11.1152 0.00994338C10.4798 0.0724434 9.56315 0.291193 8.9069 0.937027C8.70898 1.13494 8.56315 1.36411 8.43815 1.59328C7.94857 0.843277 7.38607 0.343277 7.2819 0.249527C6.8444 -0.115057 6.18815 -0.0629733 5.81315 0.374527C5.43815 0.812027 5.49023 1.46828 5.92773 1.84328C6.1569 2.04119 6.63607 2.55161 6.91732 3.14536H6.3444C3.62565 3.13494 1.4069 5.46828 1.4069 8.34328C1.4069 9.06203 1.55273 9.77036 1.82357 10.4162H14.5319ZM5.57357 24.9995H20.1569C23.0319 24.9995 25.3652 22.6662 25.3652 19.7912H0.365234C0.365234 22.6662 2.69857 24.9995 5.57357 24.9995ZM25.3652 17.7079V15.6245C25.3652 13.9058 23.959 12.4995 22.2402 12.4995H3.49023C1.77148 12.4995 0.365234 13.9058 0.365234 15.6245V17.7079H25.3652Z" fill="url(#paint0_linear_81_146)"/>
</g>
<defs>
<linearGradient id="paint0_linear_81_146" x1="12.8652" y1="-0.00390625" x2="12.8652" y2="24.9995" gradientUnits="userSpaceOnUse">
<stop stop-color="#FF5F9B"/>
<stop offset="1" stop-color="#2F67FF"/>
</linearGradient>
<clipPath id="clip0_81_146">
<rect width="25" height="25" fill="white" transform="translate(0.365234)"/>
</clipPath>
</defs>
</svg>
