<svg width="23" height="24" viewBox="0 0 23 24" fill="none" xmlns="http://www.w3.org/2000/svg">
<g clip-path="url(#clip0_105_6)">
<path d="M18.0046 0.5H5.17122C2.64122 0.5 0.587891 2.64667 0.587891 5.29167V18.7083C0.587891 21.3533 2.64122 23.5 5.17122 23.5H18.0046C20.5346 23.5 22.5879 21.3533 22.5879 18.7083V5.29167C22.5879 2.64667 20.5346 0.5 18.0046 0.5ZM6.08789 5.29167H11.5879C12.0921 5.29167 12.5046 5.72292 12.5046 6.25C12.5046 6.77708 12.0921 7.20833 11.5879 7.20833H6.08789C5.58372 7.20833 5.17122 6.77708 5.17122 6.25C5.17122 5.72292 5.58372 5.29167 6.08789 5.29167ZM6.08789 9.125H14.3379C14.8421 9.125 15.2546 9.55625 15.2546 10.0833C15.2546 10.6104 14.8421 11.0417 14.3379 11.0417H6.08789C5.58372 11.0417 5.17122 10.6104 5.17122 10.0833C5.17122 9.55625 5.58372 9.125 6.08789 9.125ZM8.83789 18.7083H6.08789C5.58372 18.7083 5.17122 18.2771 5.17122 17.75C5.17122 17.2229 5.58372 16.7917 6.08789 16.7917H8.83789C9.34206 16.7917 9.75456 17.2229 9.75456 17.75C9.75456 18.2771 9.34206 18.7083 8.83789 18.7083ZM17.0879 14.875H6.08789C5.58372 14.875 5.17122 14.4437 5.17122 13.9167C5.17122 13.3896 5.58372 12.9583 6.08789 12.9583H17.0879C17.5921 12.9583 18.0046 13.3896 18.0046 13.9167C18.0046 14.4437 17.5921 14.875 17.0879 14.875Z" fill="url(#paint0_linear_105_6)"/>
</g>
<defs>
<linearGradient id="paint0_linear_105_6" x1="11.5879" y1="0.5" x2="11.5879" y2="23.5" gradientUnits="userSpaceOnUse">
<stop stop-color="#FF5F9B"/>
<stop offset="1" stop-color="#2F67FF"/>
</linearGradient>
<clipPath id="clip0_105_6">
<rect width="22" height="23" fill="white" transform="translate(0.587891 0.5)"/>
</clipPath>
</defs>
</svg>
