<svg width="25" height="25" viewBox="0 0 25 25" fill="none" xmlns="http://www.w3.org/2000/svg">
<g clip-path="url(#clip0_81_337)">
<path d="M15.7584 8.931L13.1904 11.047V6.508C13.1904 6.508 15.6534 8.695 15.7344 8.769C15.8154 8.843 15.7574 8.93 15.7574 8.931H15.7584ZM13.1904 14.7V19.242C13.1904 19.242 15.6684 17.052 15.7374 16.978C15.8064 16.904 15.7624 16.82 15.7354 16.796L13.1904 14.7ZM24.1904 12.875C24.1904 19.492 18.8074 24.875 12.1904 24.875C5.57341 24.875 0.191406 19.492 0.191406 12.875C0.191406 6.258 5.57441 0.875 12.1914 0.875C18.8084 0.875 24.1904 6.258 24.1904 12.875ZM17.7774 16.885C17.7774 16.279 17.5154 15.7 17.0344 15.276L14.1184 12.874L17.0544 10.455C18.0044 9.658 18.0074 8.077 17.0634 7.275L13.6624 4.252C13.2254 3.865 12.5994 3.769 12.0674 4.007C11.5344 4.246 11.1914 4.778 11.1914 5.361V10.463L8.32741 8.104C7.90141 7.753 7.27041 7.813 6.91941 8.24C6.56841 8.666 6.62941 9.297 7.05541 9.648L10.9734 12.875L7.05541 16.104C6.62941 16.455 6.56841 17.085 6.91941 17.511C7.27141 17.938 7.90041 17.999 8.32641 17.647L11.1904 15.287V20.39C11.1514 21.631 12.7564 22.355 13.6614 21.499L17.0664 18.473C17.5184 18.07 17.7784 17.491 17.7774 16.885Z" fill="url(#paint0_linear_81_337)"/>
</g>
<defs>
<linearGradient id="paint0_linear_81_337" x1="12.1914" y1="0.875" x2="12.1914" y2="24.875" gradientUnits="userSpaceOnUse">
<stop stop-color="#FF5F9B"/>
<stop offset="1" stop-color="#2F67FF"/>
</linearGradient>
<clipPath id="clip0_81_337">
<rect width="24" height="24" fill="white" transform="translate(0.191406 0.875)"/>
</clipPath>
</defs>
</svg>
