<svg width="26" height="25" viewBox="0 0 26 25" fill="none" xmlns="http://www.w3.org/2000/svg">
<g clip-path="url(#clip0_81_645)">
<path d="M25.3652 3.50041V21.1114L12.8652 24.5404L0.365234 21.1114V4.50041C0.365234 3.55041 0.818359 2.67741 1.60898 2.10541C1.86836 1.91741 2.15378 1.78941 2.44857 1.68741V19.6034L12.8652 22.4604L23.2819 19.6034V0.687407C23.5767 0.789407 23.8631 0.917407 24.1215 1.10541C24.9121 1.67741 25.3652 2.55041 25.3652 3.50041ZM13.9069 3.87141V18.1344L12.8652 18.4204L11.8236 18.1344V3.87141C11.8236 2.53941 10.8913 1.35241 9.47878 0.968407L7.74023 0.569407C6.10378 0.194407 4.5319 1.38641 4.5319 3.00141V18.2144L12.8652 20.5004L21.1986 18.2144V3.03541C21.1986 1.43841 19.66 0.250407 18.035 0.593407L16.1725 0.986407C14.8382 1.35241 13.9059 2.53941 13.9059 3.87141H13.9069Z" fill="url(#paint0_linear_81_645)"/>
</g>
<defs>
<linearGradient id="paint0_linear_81_645" x1="12.8652" y1="0.5" x2="12.8652" y2="24.5404" gradientUnits="userSpaceOnUse">
<stop stop-color="#FF5F9B"/>
<stop offset="1" stop-color="#2F67FF"/>
</linearGradient>
<clipPath id="clip0_81_645">
<rect width="25" height="24" fill="white" transform="translate(0.365234 0.5)"/>
</clipPath>
</defs>
</svg>
