<svg width="24" height="25" viewBox="0 0 24 25" fill="none" xmlns="http://www.w3.org/2000/svg">
<g clip-path="url(#clip0_81_641)">
<path d="M14.157 7.5V0.96C15.0319 1.306 15.8369 1.839 16.5193 2.55L19.8581 6.036C20.5404 6.747 21.0512 7.587 21.3828 8.5H15.1153C14.5863 8.5 14.157 8.051 14.157 7.5ZM21.8006 10.5H15.1153C13.5302 10.5 12.2403 9.154 12.2403 7.5V0.524C12.086 0.513 11.9317 0.5 11.7755 0.5H7.44865C4.80652 0.5 2.65698 2.743 2.65698 5.5V14.5H6.45677L8.08882 11.945C8.27761 11.649 8.60823 11.472 8.94557 11.502C9.28673 11.524 9.59052 11.734 9.74386 12.053L11.88 16.512L12.8805 14.946C13.0587 14.668 13.3577 14.501 13.6778 14.501H17.9903C18.5193 14.501 18.9487 14.949 18.9487 15.501C18.9487 16.053 18.5193 16.501 17.9903 16.501H14.1905L12.5585 19.056C12.3802 19.335 12.0803 19.501 11.7611 19.501C11.741 19.501 11.7209 19.501 11.7017 19.499C11.3606 19.477 11.0568 19.267 10.9034 18.948L8.76732 14.489L7.76682 16.055C7.58857 16.333 7.28957 16.5 6.96948 16.5H2.65698V19.5C2.65698 22.257 4.80652 24.5 7.44865 24.5H17.032C19.6741 24.5 21.8237 22.257 21.8237 19.5V10.985C21.8237 10.822 21.8112 10.661 21.8006 10.5Z" fill="url(#paint0_linear_81_641)"/>
</g>
<defs>
<linearGradient id="paint0_linear_81_641" x1="12.2403" y1="0.5" x2="12.2403" y2="24.5" gradientUnits="userSpaceOnUse">
<stop stop-color="#FF5F9B"/>
<stop offset="1" stop-color="#2F67FF"/>
</linearGradient>
<clipPath id="clip0_81_641">
<rect width="23" height="24" fill="white" transform="translate(0.740234 0.5)"/>
</clipPath>
</defs>
</svg>
