<svg width="25" height="25" viewBox="0 0 25 25" fill="none" xmlns="http://www.w3.org/2000/svg">
<g clip-path="url(#clip0_81_639)">
<path d="M18.5879 12.5C15.2739 12.5 12.5879 15.186 12.5879 18.5C12.5879 21.814 15.2739 24.5 18.5879 24.5C21.9019 24.5 24.5879 21.814 24.5879 18.5C24.5879 15.186 21.9019 12.5 18.5879 12.5ZM19.5879 14.5V16.5H17.5879V14.5H19.5879ZM19.5879 22.5H17.5879V17.5H19.5879V22.5ZM2.58789 18.5C1.84989 18.499 1.13689 18.771 0.587891 19.265V3.5C0.587891 1.843 1.93089 0.5 3.58789 0.5H4.58789V18.5H2.58789ZM10.5879 18.5H6.58789V0.5H18.5879C19.6929 0.5 20.5879 1.395 20.5879 2.5V10.752C19.9489 10.587 19.2789 10.5 18.5879 10.5C14.1699 10.5 10.5879 14.082 10.5879 18.5ZM13.2969 24.5H2.58789C1.48289 24.5 0.587891 23.605 0.587891 22.5C0.587891 21.395 1.48289 20.5 2.58789 20.5H10.8399C11.2449 22.073 12.1159 23.458 13.2969 24.5Z" fill="url(#paint0_linear_81_639)"/>
</g>
<defs>
<linearGradient id="paint0_linear_81_639" x1="12.5879" y1="0.5" x2="12.5879" y2="24.5" gradientUnits="userSpaceOnUse">
<stop stop-color="#FF5F9B"/>
<stop offset="1" stop-color="#2F67FF"/>
</linearGradient>
<clipPath id="clip0_81_639">
<rect width="24" height="24" fill="white" transform="translate(0.587891 0.5)"/>
</clipPath>
</defs>
</svg>
