<svg width="23" height="26" viewBox="0 0 23 26" fill="none" xmlns="http://www.w3.org/2000/svg">
<path d="M18.3477 10.2832C17.9099 10.2832 17.5561 9.90987 17.5561 9.44987C17.5561 5.31487 14.3601 1.94987 10.4311 1.94987C9.99328 1.94987 9.6394 1.57654 9.6394 1.11654C9.6394 0.656536 9.99328 0.283203 10.4311 0.283203C15.2325 0.283203 19.1394 4.3957 19.1394 9.44987C19.1394 9.90987 18.7855 10.2832 18.3477 10.2832ZM15.9727 9.44987C15.9727 6.2332 13.4861 3.61654 10.4311 3.61654C9.99328 3.61654 9.6394 3.98987 9.6394 4.44987C9.6394 4.90987 9.99328 5.2832 10.4311 5.2832C12.6137 5.2832 14.3894 7.15237 14.3894 9.44987C14.3894 9.90987 14.7433 10.2832 15.1811 10.2832C15.6189 10.2832 15.9727 9.90987 15.9727 9.44987ZM12.8061 11.1165V16.1165C12.8061 18.414 11.0304 20.2832 8.84774 20.2832H4.09774C1.91511 20.2832 0.139404 18.414 0.139404 16.1165V11.1165C0.139404 8.81904 1.91511 6.94987 4.09774 6.94987H8.84774C11.0304 6.94987 12.8061 8.81904 12.8061 11.1165ZM4.09774 10.2832C4.09774 9.8232 3.74307 9.44987 3.30607 9.44987C2.86907 9.44987 2.5144 9.8232 2.5144 10.2832C2.5144 10.7432 2.86907 11.1165 3.30607 11.1165C3.74307 11.1165 4.09774 10.7432 4.09774 10.2832Z" fill="url(#paint0_linear_365_20)"/>
<g clip-path="url(#clip0_365_20)">
<path d="M16.5174 15.3182L14.8054 16.6407V13.8038C14.8054 13.8038 16.4474 15.1707 16.5014 15.217C16.5554 15.2632 16.5167 15.3176 16.5167 15.3182H16.5174ZM14.8054 18.9238V21.7626C14.8054 21.7626 16.4574 20.3938 16.5034 20.3476C16.5494 20.3013 16.5201 20.2488 16.5021 20.2338L14.8054 18.9238ZM22.1387 17.7832C22.1387 21.9188 18.5501 25.2832 14.1387 25.2832C9.7274 25.2832 6.1394 21.9188 6.1394 17.7832C6.1394 13.6476 9.72807 10.2832 14.1394 10.2832C18.5507 10.2832 22.1387 13.6476 22.1387 17.7832ZM17.8634 20.2895C17.8634 19.9107 17.6887 19.5488 17.3681 19.2838L15.4241 17.7826L17.3814 16.2707C18.0147 15.7726 18.0167 14.7845 17.3874 14.2832L15.1201 12.3938C14.8287 12.152 14.4114 12.092 14.0567 12.2407C13.7014 12.3901 13.4727 12.7226 13.4727 13.087V16.2757L11.5634 14.8013C11.2794 14.582 10.8587 14.6195 10.6247 14.8863C10.3907 15.1526 10.4314 15.547 10.7154 15.7663L13.3274 17.7832L10.7154 19.8013C10.4314 20.0207 10.3907 20.4145 10.6247 20.6807C10.8594 20.9476 11.2787 20.9857 11.5627 20.7657L13.4721 19.2907V22.4801C13.4461 23.2557 14.5161 23.7082 15.1194 23.1732L17.3894 21.282C17.6907 21.0301 17.8641 20.6682 17.8634 20.2895Z" fill="url(#paint1_linear_365_20)"/>
</g>
<defs>
<linearGradient id="paint0_linear_365_20" x1="9.6394" y1="0.283203" x2="9.6394" y2="20.2832" gradientUnits="userSpaceOnUse">
<stop stop-color="#02E3FC"/>
<stop offset="1" stop-color="#44CE5B"/>
</linearGradient>
<linearGradient id="paint1_linear_365_20" x1="14.1394" y1="10.2832" x2="14.1394" y2="25.2832" gradientUnits="userSpaceOnUse">
<stop stop-color="#FF5F9B"/>
<stop offset="1" stop-color="#2F67FF"/>
</linearGradient>
<clipPath id="clip0_365_20">
<rect width="16" height="15" fill="white" transform="translate(6.1394 10.2832)"/>
</clipPath>
</defs>
</svg>
