<svg width="24" height="25" viewBox="0 0 24 25" fill="none" xmlns="http://www.w3.org/2000/svg">
<g clip-path="url(#clip0_81_320)">
<path d="M23.0078 12.5C22.4548 12.5 22.0078 12.052 22.0078 11.5C22.0078 6.538 17.9708 2.5 13.0078 2.5C12.4548 2.5 12.0078 2.052 12.0078 1.5C12.0078 0.948 12.4548 0.5 13.0078 0.5C19.0728 0.5 24.0078 5.435 24.0078 11.5C24.0078 12.052 23.5608 12.5 23.0078 12.5ZM20.0078 11.5C20.0078 7.64 16.8668 4.5 13.0078 4.5C12.4548 4.5 12.0078 4.948 12.0078 5.5C12.0078 6.052 12.4548 6.5 13.0078 6.5C15.7648 6.5 18.0078 8.743 18.0078 11.5C18.0078 12.052 18.4548 12.5 19.0078 12.5C19.5608 12.5 20.0078 12.052 20.0078 11.5ZM16.0078 13.5V19.5C16.0078 22.257 13.7648 24.5 11.0078 24.5H5.00781C2.25081 24.5 0.0078125 22.257 0.0078125 19.5V13.5C0.0078125 10.743 2.25081 8.5 5.00781 8.5H11.0078C13.7648 8.5 16.0078 10.743 16.0078 13.5ZM5.00781 12.5C5.00781 11.948 4.55981 11.5 4.00781 11.5C3.45581 11.5 3.00781 11.948 3.00781 12.5C3.00781 13.052 3.45581 13.5 4.00781 13.5C4.55981 13.5 5.00781 13.052 5.00781 12.5Z" fill="url(#paint0_linear_81_320)"/>
</g>
<defs>
<linearGradient id="paint0_linear_81_320" x1="12.0078" y1="0.5" x2="12.0078" y2="24.5" gradientUnits="userSpaceOnUse">
<stop stop-color="#FF5F9B"/>
<stop offset="1" stop-color="#2F67FF"/>
</linearGradient>
<clipPath id="clip0_81_320">
<rect width="24" height="24" fill="white" transform="translate(0.0078125 0.5)"/>
</clipPath>
</defs>
</svg>
