<svg width="24" height="25" viewBox="0 0 24 25" fill="none" xmlns="http://www.w3.org/2000/svg">
<g clip-path="url(#clip0_81_335)">
<path d="M9.00781 9.74609H15.0078V15.7461H9.00781V9.74609ZM22.0078 11.7461V13.7461H23.0078C23.5578 13.7461 24.0078 14.1961 24.0078 14.7461C24.0078 15.2961 23.5578 15.7461 23.0078 15.7461H22.0078V17.7461H23.0078C23.5578 17.7461 24.0078 18.1961 24.0078 18.7461C24.0078 19.2961 23.5578 19.7461 23.0078 19.7461H21.5878C21.0878 20.8961 20.1578 21.8161 19.0078 22.3261V23.7461C19.0078 24.2961 18.5578 24.7461 18.0078 24.7461C17.4578 24.7461 17.0078 24.2961 17.0078 23.7461V22.7461H15.0078V23.7461C15.0078 24.2961 14.5578 24.7461 14.0078 24.7461C13.4578 24.7461 13.0078 24.2961 13.0078 23.7461V22.7461H11.0078V23.7461C11.0078 24.2961 10.5578 24.7461 10.0078 24.7461C9.45781 24.7461 9.00781 24.2961 9.00781 23.7461V22.7461H7.00781V23.7461C7.00781 24.2961 6.55781 24.7461 6.00781 24.7461C5.45781 24.7461 5.00781 24.2961 5.00781 23.7461V22.3261C3.85781 21.8261 2.93781 20.8961 2.42781 19.7461H1.00781C0.457812 19.7461 0.0078125 19.2961 0.0078125 18.7461C0.0078125 18.1961 0.457812 17.7461 1.00781 17.7461H2.00781V15.7461H1.00781C0.457812 15.7461 0.0078125 15.2961 0.0078125 14.7461C0.0078125 14.1961 0.457812 13.7461 1.00781 13.7461H2.00781V11.7461H1.00781C0.457812 11.7461 0.0078125 11.2961 0.0078125 10.7461C0.0078125 10.1961 0.457812 9.74609 1.00781 9.74609H2.00781V7.74609H1.00781C0.457812 7.74609 0.0078125 7.29609 0.0078125 6.74609C0.0078125 6.19609 0.457812 5.74609 1.00781 5.74609H2.42781C2.92781 4.59609 3.85781 3.67609 5.00781 3.16609V1.74609C5.00781 1.19609 5.45781 0.746094 6.00781 0.746094C6.55781 0.746094 7.00781 1.19609 7.00781 1.74609V2.74609H9.00781V1.74609C9.00781 1.19609 9.45781 0.746094 10.0078 0.746094C10.5578 0.746094 11.0078 1.19609 11.0078 1.74609V2.74609H13.0078V1.74609C13.0078 1.19609 13.4578 0.746094 14.0078 0.746094C14.5578 0.746094 15.0078 1.19609 15.0078 1.74609V2.74609H17.0078V1.74609C17.0078 1.19609 17.4578 0.746094 18.0078 0.746094C18.5578 0.746094 19.0078 1.19609 19.0078 1.74609V3.16609C20.1578 3.66609 21.0778 4.59609 21.5878 5.74609H23.0078C23.5578 5.74609 24.0078 6.19609 24.0078 6.74609C24.0078 7.29609 23.5578 7.74609 23.0078 7.74609H22.0078V9.74609H23.0078C23.5578 9.74609 24.0078 10.1961 24.0078 10.7461C24.0078 11.2961 23.5578 11.7461 23.0078 11.7461H22.0078ZM17.0078 16.7461V8.74609C17.0078 8.19609 16.5578 7.74609 16.0078 7.74609H8.00781C7.45781 7.74609 7.00781 8.19609 7.00781 8.74609V16.7461C7.00781 17.2961 7.45781 17.7461 8.00781 17.7461H16.0078C16.5578 17.7461 17.0078 17.2961 17.0078 16.7461Z" fill="url(#paint0_linear_81_335)"/>
</g>
<defs>
<linearGradient id="paint0_linear_81_335" x1="12.0078" y1="0.746094" x2="12.0078" y2="24.7461" gradientUnits="userSpaceOnUse">
<stop stop-color="#FF5F9B"/>
<stop offset="1" stop-color="#2F67FF"/>
</linearGradient>
<clipPath id="clip0_81_335">
<rect width="24" height="24" fill="white" transform="translate(0.0078125 0.746094)"/>
</clipPath>
</defs>
</svg>
