<svg width="25" height="25" viewBox="0 0 25 25" fill="none" xmlns="http://www.w3.org/2000/svg">
<g clip-path="url(#clip0_81_341)">
<path d="M14.4703 15.757L10.9233 20.869C10.3422 21.706 10.0312 22.701 10.0312 23.72C10.0312 24.358 9.51425 24.876 8.87525 24.876H1.18725C0.54925 24.876 0.03125 24.359 0.03125 23.72V17.913C0.03125 15.029 1.27625 12.286 3.44625 10.387L7.03125 7.25V13.435L5.64325 14.677C5.23125 15.045 5.19625 15.677 5.56525 16.089C5.93325 16.501 6.56525 16.536 6.97725 16.167L11.1132 12.466C11.9913 11.688 13.3073 11.675 14.2013 12.434C15.1932 13.277 15.3142 14.764 14.4712 15.755L14.4703 15.757ZM16.1262 16.875H24.0312V18.375C24.0312 20.86 22.0163 22.875 19.5312 22.875H12.0312C12.0312 22.875 16.1042 16.904 16.1262 16.875ZM17.0312 18.875H16.0312C15.4792 18.875 15.0312 19.323 15.0312 19.875C15.0312 20.427 15.4792 20.875 16.0312 20.875H17.0312C17.5833 20.875 18.0312 20.427 18.0312 19.875C18.0312 19.323 17.5833 18.875 17.0312 18.875ZM13.0312 0.875C10.8223 0.875 9.03125 2.666 9.03125 4.875V11.646L9.78725 10.97C11.3472 9.543 13.9062 9.518 15.4952 10.912C16.6362 11.869 17.2192 13.405 16.9722 14.876H24.0312V4.875C24.0312 2.666 22.2402 0.875 20.0312 0.875H13.0312Z" fill="url(#paint0_linear_81_341)"/>
</g>
<defs>
<linearGradient id="paint0_linear_81_341" x1="12.0312" y1="0.875" x2="12.0313" y2="24.876" gradientUnits="userSpaceOnUse">
<stop stop-color="#FF5F9B"/>
<stop offset="1" stop-color="#2F67FF"/>
</linearGradient>
<clipPath id="clip0_81_341">
<rect width="24" height="24" fill="white" transform="translate(0.03125 0.875)"/>
</clipPath>
</defs>
</svg>
