<svg width="26" height="25" viewBox="0 0 26 25" fill="none" xmlns="http://www.w3.org/2000/svg">
<path d="M4.71331 21.7732C4.7404 21.4066 4.78206 20.9378 4.82998 20.3941C5.01436 18.2878 5.28727 15.166 5.28727 12.5003C5.28727 10.368 5.17477 7.93262 5.05915 5.97949C3.8029 6.25137 3.0279 6.59928 2.97581 6.62324C2.64769 6.77533 2.42061 7.08678 2.3779 7.44616C2.36331 7.56699 2.02686 10.441 2.02686 14.2857C2.02686 16.266 2.08206 17.8524 2.19665 19.1347C2.31852 20.4982 3.48415 21.4326 4.71644 22.0472C4.7154 21.9555 4.70498 21.866 4.71227 21.7732H4.71331Z" fill="url(#paint0_linear_81_636)"/>
<path d="M23.8604 3.01283C23.7698 2.67116 23.5104 2.39928 23.1729 2.28991C23.0146 2.23887 19.2427 1.04199 14.7844 1.04199C12.2823 1.04199 9.44688 1.43262 7.74792 1.82012C7.2448 1.9347 6.90209 2.40033 6.94063 2.91491C7.07084 4.62012 7.37188 8.96595 7.37188 12.5014C7.37188 15.2576 7.09375 18.4347 6.90938 20.5368C6.86146 21.0878 6.8198 21.5628 6.79167 21.9326C6.75209 22.4472 7.09584 22.9118 7.59896 23.0274C8.82813 23.3076 11.9896 23.9597 14.7854 23.9597C19.2344 23.9597 23.0146 22.7628 23.174 22.7118C23.5125 22.6034 23.7719 22.3295 23.8625 21.9868C23.9063 21.8191 24.9458 17.8284 24.9458 12.5024C24.9458 7.13053 23.9052 3.18053 23.8615 3.01491L23.8604 3.01283ZM11.6146 7.07428C11.7219 6.78887 11.95 6.56387 12.2375 6.46074C12.2979 6.43887 12.8438 6.25033 13.4875 6.25033C14.1208 6.25033 14.6396 6.42741 14.7365 6.46283C15.0167 6.56491 15.2396 6.78158 15.349 7.0597C15.3865 7.15345 15.5708 7.65553 15.5708 8.33366C15.5708 9.00345 15.3896 9.51074 15.3531 9.60553C15.2438 9.89199 15.0125 10.1149 14.724 10.216C14.6646 10.2368 14.1271 10.417 13.4885 10.417C12.85 10.417 12.3104 10.2368 12.251 10.217C11.9573 10.1159 11.725 9.88887 11.6156 9.59824C11.5802 9.50449 11.4052 9.00345 11.4052 8.3347C11.4052 7.66595 11.5802 7.16908 11.6167 7.07533L11.6146 7.07428ZM19.7365 18.7503H12.4448C11.8698 18.7503 11.4031 18.2837 11.4031 17.7087C11.4031 17.1337 11.8698 16.667 12.4448 16.667H19.7365C20.3115 16.667 20.7781 17.1337 20.7781 17.7087C20.7781 18.2837 20.3115 18.7503 19.7365 18.7503ZM19.7365 14.5837H12.4448C11.8698 14.5837 11.4031 14.117 11.4031 13.542C11.4031 12.967 11.8698 12.5003 12.4448 12.5003H19.7365C20.3115 12.5003 20.7781 12.967 20.7781 13.542C20.7781 14.117 20.3115 14.5837 19.7365 14.5837ZM19.7365 10.417H17.6531C17.0781 10.417 16.6115 9.95033 16.6115 9.37533C16.6115 8.80033 17.0781 8.33366 17.6531 8.33366H19.7365C20.3115 8.33366 20.7781 8.80033 20.7781 9.37533C20.7781 9.95033 20.3115 10.417 19.7365 10.417Z" fill="url(#paint1_linear_81_636)"/>
<defs>
<linearGradient id="paint0_linear_81_636" x1="3.65706" y1="5.97949" x2="3.65706" y2="22.0472" gradientUnits="userSpaceOnUse">
<stop stop-color="#FF5F9B"/>
<stop offset="1" stop-color="#2F67FF"/>
</linearGradient>
<linearGradient id="paint1_linear_81_636" x1="15.8672" y1="1.04199" x2="15.8672" y2="23.9597" gradientUnits="userSpaceOnUse">
<stop stop-color="#FF5F9B"/>
<stop offset="1" stop-color="#2F67FF"/>
</linearGradient>
</defs>
</svg>
