<svg width="23" height="24" viewBox="0 0 23 24" fill="none" xmlns="http://www.w3.org/2000/svg">
<g clip-path="url(#clip0_105_8)">
<path d="M16.9863 17.7495C16.9863 18.542 16.3694 19.187 15.6113 19.187C14.8532 19.187 14.2363 18.542 14.2363 17.7495C14.2363 16.9569 14.8532 16.312 15.6113 16.312C16.3694 16.312 16.9863 16.9569 16.9863 17.7495ZM22.4863 11.9995V18.7078C22.4863 21.3499 20.4302 23.4995 17.903 23.4995H5.06966C2.54241 23.4995 0.486328 21.3499 0.486328 18.7078V11.9995H22.4863ZM9.653 19.6661C9.653 19.1371 9.24325 18.7078 8.73633 18.7078H5.06966C4.56275 18.7078 4.15299 19.1371 4.15299 19.6661C4.15299 20.1951 4.56275 20.6245 5.06966 20.6245H8.73633C9.24325 20.6245 9.653 20.1951 9.653 19.6661ZM9.653 15.8328C9.653 15.3038 9.24325 14.8745 8.73633 14.8745H5.06966C4.56275 14.8745 4.15299 15.3038 4.15299 15.8328C4.15299 16.3618 4.56275 16.7911 5.06966 16.7911H8.73633C9.24325 16.7911 9.653 16.3618 9.653 15.8328ZM18.8197 17.7495C18.8197 15.8999 17.3805 14.3953 15.6113 14.3953C13.8422 14.3953 12.403 15.8999 12.403 17.7495C12.403 19.5991 13.8422 21.1036 15.6113 21.1036C17.3805 21.1036 18.8197 19.5991 18.8197 17.7495ZM22.3937 10.0828C21.9675 7.89877 20.1158 6.24948 17.903 6.24948H9.69516L20.0462 2.3596C20.5237 2.18039 20.7703 1.63223 20.5998 1.13389C20.4275 0.63556 19.9013 0.373935 19.4274 0.556018L3.64608 6.48619C2.09691 7.0171 0.908911 8.38848 0.578911 10.0828H22.3937Z" fill="url(#paint0_linear_105_8)"/>
</g>
<defs>
<linearGradient id="paint0_linear_105_8" x1="11.4863" y1="0.498047" x2="11.4863" y2="23.4995" gradientUnits="userSpaceOnUse">
<stop stop-color="#FF5F9B"/>
<stop offset="1" stop-color="#2F67FF"/>
</linearGradient>
<clipPath id="clip0_105_8">
<rect width="22" height="23" fill="white" transform="translate(0.486328 0.5)"/>
</clipPath>
</defs>
</svg>
