<svg width="26" height="25" viewBox="0 0 26 25" fill="none" xmlns="http://www.w3.org/2000/svg">
<g clip-path="url(#clip0_81_148)">
<path d="M5.25052 11.4583H0.726562C0.728217 10.0774 1.27748 8.75363 2.25387 7.77723C3.23027 6.80084 4.55407 6.25157 5.9349 6.24992H12.1849V1.70409C12.1851 1.41735 12.2576 1.13529 12.3957 0.883989C12.5338 0.632692 12.733 0.420276 12.9749 0.266387C13.2169 0.112497 13.4937 0.0221039 13.7799 0.00356727C14.066 -0.0149694 14.3522 0.0389492 14.612 0.160336L17.9453 1.72284C18.0961 1.81626 18.2204 1.94661 18.3067 2.10156C18.393 2.25651 18.4382 2.43091 18.4382 2.60825C18.4382 2.78559 18.393 2.96 18.3067 3.11495C18.2204 3.26989 18.0961 3.40025 17.9453 3.49367L14.2682 5.20825V6.24992H20.5182C21.8991 6.25157 23.2229 6.80084 24.1992 7.77723C25.1756 8.75363 25.7249 10.0774 25.7266 11.4583H21.2026C20.3888 11.4585 19.607 11.1412 19.0234 10.5739L16.1734 7.47075C15.3769 6.70253 14.3117 6.27586 13.2051 6.2817C12.0985 6.28754 11.0379 6.72542 10.2495 7.502L7.4599 10.5426C6.87289 11.1271 6.07887 11.4561 5.25052 11.4583ZM13.2266 19.7916C12.9503 19.7916 12.6853 19.9013 12.49 20.0967C12.2946 20.292 12.1849 20.557 12.1849 20.8333V24.9999H14.2682V20.8333C14.2682 20.557 14.1585 20.292 13.9631 20.0967C13.7678 19.9013 13.5028 19.7916 13.2266 19.7916ZM21.2026 13.5416H25.7266V21.8749C25.7266 22.7037 25.3973 23.4986 24.8113 24.0846C24.2252 24.6707 23.4304 24.9999 22.6016 24.9999H16.3516V20.8333C16.3516 20.0045 16.0223 19.2096 15.4363 18.6235C14.8502 18.0375 14.0554 17.7083 13.2266 17.7083C12.3978 17.7083 11.6029 18.0375 11.0169 18.6235C10.4308 19.2096 10.1016 20.0045 10.1016 20.8333V24.9999H3.85156C3.02276 24.9999 2.2279 24.6707 1.64185 24.0846C1.0558 23.4986 0.726563 22.7037 0.726563 21.8749L0.726562 13.5416H5.25052C5.94194 13.5418 6.62647 13.4042 7.26409 13.1368C7.90171 12.8694 8.47963 12.4776 8.96406 11.9843L11.7536 8.94367C12.1475 8.57411 12.6658 8.36583 13.2059 8.36004C13.746 8.35426 14.2686 8.55138 14.6703 8.91242L17.5224 12.0155C18.0046 12.5005 18.5781 12.885 19.2098 13.1469C19.8414 13.4089 20.5188 13.543 21.2026 13.5416ZM6.97656 21.8749C6.97656 21.5987 6.86682 21.3337 6.67146 21.1383C6.47611 20.943 6.21116 20.8333 5.9349 20.8333H4.89323C4.61696 20.8333 4.35201 20.943 4.15666 21.1383C3.96131 21.3337 3.85156 21.5987 3.85156 21.8749C3.85156 22.1512 3.96131 22.4161 4.15666 22.6115C4.35201 22.8068 4.61696 22.9166 4.89323 22.9166H5.9349C6.21116 22.9166 6.47611 22.8068 6.67146 22.6115C6.86682 22.4161 6.97656 22.1512 6.97656 21.8749ZM6.97656 17.7083C6.97656 17.432 6.86682 17.167 6.67146 16.9717C6.47611 16.7763 6.21116 16.6666 5.9349 16.6666H4.89323C4.61696 16.6666 4.35201 16.7763 4.15666 16.9717C3.96131 17.167 3.85156 17.432 3.85156 17.7083C3.85156 17.9845 3.96131 18.2495 4.15666 18.4448C4.35201 18.6402 4.61696 18.7499 4.89323 18.7499H5.9349C6.21116 18.7499 6.47611 18.6402 6.67146 18.4448C6.86682 18.2495 6.97656 17.9845 6.97656 17.7083ZM15.3099 13.5416C15.3099 13.1295 15.1877 12.7268 14.9588 12.3841C14.7299 12.0415 14.4045 11.7745 14.0238 11.6168C13.6431 11.4592 13.2243 11.4179 12.8201 11.4983C12.416 11.5787 12.0448 11.7771 11.7534 12.0684C11.4621 12.3598 11.2636 12.731 11.1833 13.1351C11.1029 13.5393 11.1441 13.9582 11.3018 14.3388C11.4595 14.7195 11.7265 15.0449 12.0691 15.2738C12.4117 15.5027 12.8145 15.6249 13.2266 15.6249C13.7791 15.6249 14.309 15.4054 14.6997 15.0147C15.0904 14.624 15.3099 14.0941 15.3099 13.5416ZM22.6016 21.8749C22.6016 21.5987 22.4918 21.3337 22.2965 21.1383C22.1011 20.943 21.8362 20.8333 21.5599 20.8333H20.5182C20.242 20.8333 19.977 20.943 19.7817 21.1383C19.5863 21.3337 19.4766 21.5987 19.4766 21.8749C19.4766 22.1512 19.5863 22.4161 19.7817 22.6115C19.977 22.8068 20.242 22.9166 20.5182 22.9166H21.5599C21.8362 22.9166 22.1011 22.8068 22.2965 22.6115C22.4918 22.4161 22.6016 22.1512 22.6016 21.8749ZM21.5599 16.6666H20.5182C20.242 16.6666 19.977 16.7763 19.7817 16.9717C19.5863 17.167 19.4766 17.432 19.4766 17.7083C19.4766 17.9845 19.5863 18.2495 19.7817 18.4448C19.977 18.6402 20.242 18.7499 20.5182 18.7499H21.5599C21.8362 18.7499 22.1011 18.6402 22.2965 18.4448C22.4918 18.2495 22.6016 17.9845 22.6016 17.7083C22.6016 17.432 22.4918 17.167 22.2965 16.9717C22.1011 16.7763 21.8362 16.6666 21.5599 16.6666Z" fill="url(#paint0_linear_81_148)"/>
</g>
<defs>
<linearGradient id="paint0_linear_81_148" x1="13.2266" y1="0" x2="13.2266" y2="24.9999" gradientUnits="userSpaceOnUse">
<stop stop-color="#FF5F9B"/>
<stop offset="1" stop-color="#2F67FF"/>
</linearGradient>
<clipPath id="clip0_81_148">
<rect width="25" height="25" fill="white" transform="translate(0.726562)"/>
</clipPath>
</defs>
</svg>
