<svg width="25" height="25" viewBox="0 0 25 25" fill="none" xmlns="http://www.w3.org/2000/svg">
<g clip-path="url(#clip0_81_130)">
<path d="M24.5879 22.5V24.5H0.587891V22.5C0.587891 20.846 1.93389 19.5 3.58789 19.5H21.5879C23.2419 19.5 24.5879 20.846 24.5879 22.5ZM3.58789 14.562H1.58789V5.5C1.58789 4.198 2.42689 3.098 3.58789 2.684V0.5H5.58789V2.5H17.5879V0.5H19.5879V2.5H20.5879C22.2419 2.5 23.5879 3.846 23.5879 5.5V17.5H14.5879V10.5H7.58789V14.562H5.58789V16.5H3.58789V14.562ZM17.5879 10C17.5879 10.828 18.2599 11.5 19.0879 11.5C19.9159 11.5 20.5879 10.828 20.5879 10C20.5879 9.172 19.9159 8.5 19.0879 8.5C18.2599 8.5 17.5879 9.172 17.5879 10ZM17.5879 14C17.5879 14.828 18.2599 15.5 19.0879 15.5C19.9159 15.5 20.5879 14.828 20.5879 14C20.5879 13.172 19.9159 12.5 19.0879 12.5C18.2599 12.5 17.5879 13.172 17.5879 14Z" fill="url(#paint0_linear_81_130)"/>
</g>
<defs>
<linearGradient id="paint0_linear_81_130" x1="12.5879" y1="0.5" x2="12.5879" y2="24.5" gradientUnits="userSpaceOnUse">
<stop stop-color="#FF5F9B"/>
<stop offset="1" stop-color="#2F67FF"/>
</linearGradient>
<clipPath id="clip0_81_130">
<rect width="24" height="24" fill="white" transform="translate(0.587891 0.5)"/>
</clipPath>
</defs>
</svg>
