<svg width="25" height="25" viewBox="0 0 25 25" fill="none" xmlns="http://www.w3.org/2000/svg">
<g clip-path="url(#clip0_81_144)">
<path d="M11.2402 0H3.24023C2.44458 0 1.68152 0.32924 1.11891 0.915291C0.556305 1.50134 0.240234 2.2962 0.240234 3.125L0.240234 25H14.2402V3.125C14.2402 2.2962 13.9242 1.50134 13.3616 0.915291C12.7989 0.32924 12.0359 0 11.2402 0ZM6.24023 19.7917H3.24023V17.7083H6.24023V19.7917ZM6.24023 15.625H3.24023V13.5417H6.24023V15.625ZM6.24023 11.4583H3.24023V9.375H6.24023V11.4583ZM6.24023 7.29167H3.24023V5.20833H6.24023V7.29167ZM11.2402 19.7917H8.24023V17.7083H11.2402V19.7917ZM11.2402 15.625H8.24023V13.5417H11.2402V15.625ZM11.2402 11.4583H8.24023V9.375H11.2402V11.4583ZM11.2402 7.29167H8.24023V5.20833H11.2402V7.29167ZM21.2402 5.20833H16.2402V25H24.2402V8.33333C24.2402 7.50453 23.9242 6.70968 23.3616 6.12362C22.7989 5.53757 22.0359 5.20833 21.2402 5.20833ZM21.2402 19.7917H19.2402V17.7083H21.2402V19.7917ZM21.2402 15.625H19.2402V13.5417H21.2402V15.625ZM21.2402 11.4583H19.2402V9.375H21.2402V11.4583Z" fill="url(#paint0_linear_81_144)"/>
</g>
<defs>
<linearGradient id="paint0_linear_81_144" x1="12.2402" y1="0" x2="12.2402" y2="25" gradientUnits="userSpaceOnUse">
<stop stop-color="#FF5F9B"/>
<stop offset="1" stop-color="#2F67FF"/>
</linearGradient>
<clipPath id="clip0_81_144">
<rect width="24" height="25" fill="white" transform="translate(0.240234)"/>
</clipPath>
</defs>
</svg>
