<svg width="25" height="25" viewBox="0 0 25 25" fill="none" xmlns="http://www.w3.org/2000/svg">
<g clip-path="url(#clip0_105_2)">
<path d="M23.5453 16.5597C21.7333 21.1987 17.3453 24.1957 12.3633 24.1957C8.95528 24.1957 5.69628 22.7387 3.42228 20.1987C1.14928 17.6607 0.0612839 14.2477 0.438284 10.8337C1.04728 5.32174 5.48928 0.879739 11.0013 0.270739C17.1483 -0.402261 22.7743 3.61374 24.0873 9.62474C24.2753 10.4817 24.0623 11.3717 23.5033 12.0647C22.9243 12.7837 22.0643 13.1957 21.1433 13.1957H15.3643C14.8113 13.1957 14.3643 12.7477 14.3643 12.1957C14.3643 11.6037 14.1033 11.0447 13.6493 10.6627C13.1883 10.2757 12.5993 10.1217 11.9933 10.2277C11.2063 10.3657 10.5353 11.0377 10.3973 11.8237C10.2913 12.4307 10.4453 13.0187 10.8323 13.4797C11.2143 13.9337 11.7723 14.1947 12.3653 14.1947C12.9173 14.1947 13.3653 14.6427 13.3653 15.1947C13.3653 15.7467 12.9173 16.1947 12.3653 16.1947C11.1803 16.1947 10.0633 15.6737 9.30128 14.7657C8.53928 13.8577 8.22128 12.6597 8.42828 11.4777C8.71128 9.86474 10.0353 8.54074 11.6483 8.25774C12.8283 8.04974 14.0283 8.36774 14.9363 9.13074C15.5823 9.67374 16.0333 10.3967 16.2393 11.1947H18.2753C18.2153 10.8377 18.1233 10.4917 18.0023 10.1577C17.0723 9.98674 16.3653 9.17474 16.3653 8.19474C16.3653 8.05074 16.3823 7.91174 16.4103 7.77674C15.3423 6.79774 13.9243 6.19474 12.3653 6.19474C10.8063 6.19474 9.38828 6.79774 8.32028 7.77674C8.34928 7.91174 8.36528 8.05174 8.36528 8.19474C8.36528 9.17474 7.65928 9.98674 6.72828 10.1577C6.49728 10.7947 6.36528 11.4787 6.36528 12.1947C6.36528 14.9567 8.24328 17.2827 10.7883 17.9777C11.1543 17.5047 11.7213 17.1947 12.3653 17.1947C13.0093 17.1947 13.5753 17.5037 13.9413 17.9767C15.2823 17.6107 16.4763 16.7907 17.2903 15.6227C17.6053 15.1707 18.2273 15.0567 18.6833 15.3747C19.1363 15.6907 19.2463 16.3137 18.9313 16.7677C17.7933 18.3987 16.1013 19.5267 14.2073 19.9757C13.9033 20.6927 13.1933 21.1957 12.3653 21.1957C11.5373 21.1957 10.8253 20.6917 10.5223 19.9727C6.99828 19.1367 4.36528 15.9717 4.36528 12.1957C4.36528 11.2427 4.54128 10.3327 4.84828 9.48474C4.55128 9.13574 4.36528 8.68974 4.36528 8.19574C4.36528 7.09074 5.26028 6.19574 6.36528 6.19574C6.57928 6.19574 6.78228 6.23874 6.97628 6.30074C8.40028 4.99774 10.2883 4.19574 12.3653 4.19574C14.4423 4.19574 16.3313 4.99774 17.7543 6.30074C17.9483 6.23874 18.1503 6.19574 18.3653 6.19574C19.4703 6.19574 20.3653 7.09074 20.3653 8.19574C20.3653 8.68974 20.1793 9.13574 19.8823 9.48474C20.0803 10.0307 20.2213 10.6017 20.2953 11.1957H21.1443C21.4563 11.1957 21.7493 11.0547 21.9473 10.8097C22.0513 10.6807 22.2143 10.4107 22.1353 10.0507C21.0423 5.04274 16.3543 1.69274 11.2233 2.25874C6.63228 2.76574 2.93328 6.46474 2.42628 11.0527C2.10728 13.9447 2.98928 16.7187 4.91128 18.8647C6.80728 20.9817 9.52328 22.1957 12.3633 22.1957C16.5143 22.1957 20.1733 19.6977 21.6813 15.8317C21.8823 15.3167 22.4633 15.0637 22.9763 15.2637C23.4913 15.4647 23.7463 16.0447 23.5443 16.5587L23.5453 16.5597Z" fill="url(#paint0_linear_105_2)"/>
</g>
<defs>
<linearGradient id="paint0_linear_105_2" x1="12.2595" y1="0.197266" x2="12.2595" y2="24.1957" gradientUnits="userSpaceOnUse">
<stop stop-color="#FF5F9B"/>
<stop offset="1" stop-color="#2F67FF"/>
</linearGradient>
<clipPath id="clip0_105_2">
<rect width="24" height="24" fill="white" transform="translate(0.363281 0.195312)"/>
</clipPath>
</defs>
</svg>
