<svg width="29" height="29" viewBox="0 0 29 29" fill="none" xmlns="http://www.w3.org/2000/svg">
<g clip-path="url(#clip0_81_339)">
<path d="M12.0182 22.9499C12.0182 21.6665 13.0682 20.6165 14.3516 20.6165C15.6349 20.6165 16.6849 21.6665 16.6849 22.9499C16.6849 24.2332 15.6349 25.2832 14.3516 25.2832C13.0682 25.2832 12.0182 24.2332 12.0182 22.9499ZM21.7716 18.0032C22.4599 17.3149 22.4599 16.2065 21.7716 15.5299C17.6766 11.4349 11.0149 11.4349 6.9199 15.5299C6.23157 16.2182 6.23157 17.3265 6.9199 18.0032C7.60823 18.6799 8.71657 18.6915 9.39323 18.0032C12.1232 15.2732 16.5682 15.2732 19.2982 18.0032C19.6366 18.3415 20.0916 18.5165 20.5349 18.5165C20.9782 18.5165 21.4332 18.3415 21.7716 18.0032ZM27.8032 12.5549C28.5032 11.8899 28.5266 10.7815 27.8616 10.0815C27.7566 9.97654 27.6516 9.85987 27.5466 9.75487C24.0232 6.23154 19.3332 4.2832 14.3516 4.2832C9.3699 4.2832 4.6799 6.21987 1.15656 9.7432C1.05156 9.8482 0.946565 9.96487 0.841565 10.0699C0.176565 10.7699 0.199898 11.8782 0.899898 12.5432C1.5999 13.2082 2.70823 13.1849 3.37323 12.4849L3.6299 12.2165C6.4999 9.34654 10.3032 7.77154 14.3516 7.77154C18.3999 7.77154 22.2149 9.34654 25.0849 12.2165L25.3416 12.4732C25.6799 12.8349 26.1466 13.0099 26.6016 13.0099C27.0332 13.0099 27.4766 12.8465 27.8149 12.5315L27.8032 12.5549Z" fill="url(#paint0_linear_81_339)"/>
</g>
<defs>
<linearGradient id="paint0_linear_81_339" x1="14.3516" y1="4.2832" x2="14.3516" y2="25.2832" gradientUnits="userSpaceOnUse">
<stop stop-color="#FF5F9B"/>
<stop offset="1" stop-color="#2F67FF"/>
</linearGradient>
<clipPath id="clip0_81_339">
<rect width="28" height="28" fill="white" transform="translate(0.351562 0.783203)"/>
</clipPath>
</defs>
</svg>
