<svg width="24" height="25" viewBox="0 0 24 25" fill="none" xmlns="http://www.w3.org/2000/svg">
<path d="M18.48 20.53C18.48 21.0158 18.0858 21.41 17.6 21.41C17.1142 21.41 16.72 21.0158 16.72 20.53C16.72 20.0443 17.1142 19.65 17.6 19.65C18.0858 19.65 18.48 20.0443 18.48 20.53ZM20.24 17.01C19.7542 17.01 19.36 17.4043 19.36 17.89C19.36 18.3758 19.7542 18.77 20.24 18.77C20.7258 18.77 21.12 18.3758 21.12 17.89C21.12 17.4043 20.7258 17.01 20.24 17.01ZM17.6 17.01C17.1142 17.01 16.72 17.4043 16.72 17.89C16.72 18.3758 17.1142 18.77 17.6 18.77C18.0858 18.77 18.48 18.3758 18.48 17.89C18.48 17.4043 18.0858 17.01 17.6 17.01ZM15.84 14.37V13.49C15.84 12.5194 15.0506 11.73 14.08 11.73H13.2C12.2294 11.73 11.44 12.5194 11.44 13.49V14.37C11.44 15.3407 12.2294 16.13 13.2 16.13H14.08C15.0506 16.13 15.84 15.3407 15.84 14.37ZM14.08 13.49V14.37H13.2V13.49H14.08ZM15.84 19.65V18.77C15.84 17.7994 15.0506 17.01 14.08 17.01H13.2C12.2294 17.01 11.44 17.7994 11.44 18.77V19.65C11.44 20.6207 12.2294 21.41 13.2 21.41H14.08C15.0506 21.41 15.84 20.6207 15.84 19.65ZM14.08 18.77V19.65H13.2V18.77H14.08ZM21.12 14.37V13.49C21.12 12.5194 20.3306 11.73 19.36 11.73H18.48C17.5094 11.73 16.72 12.5194 16.72 13.49V14.37C16.72 15.3407 17.5094 16.13 18.48 16.13H19.36C20.3306 16.13 21.12 15.3407 21.12 14.37ZM19.36 13.49V14.37H18.48V13.49H19.36ZM9.68264 18.748C9.5348 18.7551 9.3896 18.77 9.24 18.77C4.1448 18.77 0 14.6252 0 9.53004C0 4.43484 4.1448 0.290039 9.24 0.290039C14.3352 0.290039 18.48 4.43484 18.48 9.53004C18.48 9.67964 18.465 9.82484 18.458 9.97268C17.6308 9.97796 16.8793 10.2807 16.28 10.7647C15.6754 10.2754 14.9169 9.97004 14.08 9.97004H13.2C12.936 9.97004 12.6799 10.0044 12.4318 10.0598C10.8134 8.19948 7.84872 8.20388 6.12832 9.93836C5.78424 10.2816 5.78424 10.8386 6.12832 11.1827C6.4724 11.5268 7.02856 11.5268 7.37264 11.1827C8.30632 10.2499 9.76536 10.1724 10.7976 10.931C10.4764 11.232 10.2159 11.5919 10.025 11.994C9.80496 11.8304 9.5348 11.7292 9.24 11.7292C8.51136 11.7292 7.92 12.3205 7.92 13.0492C7.92 13.7778 8.51136 14.3692 9.24 14.3692C9.39488 14.3692 9.54096 14.3375 9.67912 14.2882C9.65976 15.1471 9.96776 15.947 10.4738 16.5692C9.98888 17.1684 9.68704 17.9191 9.68176 18.7472L9.68264 18.748ZM5.19552 9.00556C6.27616 7.92492 7.71232 7.33004 9.24 7.33004C10.7677 7.33004 12.2047 7.92492 13.2845 9.00556C13.6286 9.34964 14.1847 9.34964 14.5288 9.00556C14.8729 8.66236 14.8729 8.10532 14.5288 7.76124C13.1164 6.34884 11.2376 5.57004 9.24 5.57004C7.2424 5.57004 5.3636 6.34796 3.9512 7.76124C3.60712 8.10532 3.60712 8.66236 3.9512 9.00556C4.29528 9.34964 4.85144 9.34964 5.19552 9.00556Z" fill="url(#paint0_linear_364_15)"/>
<rect x="11.52" y="11.8096" width="12.48" height="9.6" fill="white"/>
<g clip-path="url(#clip0_364_15)">
<path d="M17.6429 14.0855L15.9994 15.4398V12.5348C15.9994 12.5348 17.5757 13.9345 17.6275 13.9818C17.6794 14.0292 17.6422 14.0849 17.6422 14.0855H17.6429ZM15.9994 17.7777V20.6846C15.9994 20.6846 17.5853 19.283 17.6294 19.2356C17.6736 19.1882 17.6454 19.1345 17.6282 19.1191L15.9994 17.7777ZM23.0394 16.6097C23.0394 20.8446 19.5942 24.2897 15.3594 24.2897C11.1245 24.2897 7.67999 20.8446 7.67999 16.6097C7.67999 12.3748 11.1251 8.92969 15.36 8.92969C19.5949 8.92969 23.0394 12.3748 23.0394 16.6097ZM18.935 19.1761C18.935 18.7882 18.7674 18.4177 18.4595 18.1463L16.5933 16.609L18.4723 15.0609C19.0803 14.5508 19.0822 13.539 18.4781 13.0257L16.3014 11.091C16.0218 10.8433 15.6211 10.7818 15.2806 10.9342C14.9395 11.0871 14.72 11.4276 14.72 11.8007V15.066L12.887 13.5562C12.6144 13.3316 12.2106 13.37 11.9859 13.6433C11.7613 13.9159 11.8003 14.3198 12.073 14.5444L14.5805 16.6097L12.073 18.6762C11.8003 18.9009 11.7613 19.3041 11.9859 19.5767C12.2112 19.85 12.6138 19.889 12.8864 19.6638L14.7194 18.1534V21.4193C14.6944 22.2135 15.7216 22.6769 16.3008 22.129L18.48 20.1924C18.7693 19.9345 18.9357 19.5639 18.935 19.1761Z" fill="url(#paint1_linear_364_15)"/>
</g>
<defs>
<linearGradient id="paint0_linear_364_15" x1="10.56" y1="0.290039" x2="9.5706" y2="19.0674" gradientUnits="userSpaceOnUse">
<stop stop-color="#03DBFD"/>
<stop offset="1" stop-color="#45A756"/>
</linearGradient>
<linearGradient id="paint1_linear_364_15" x1="15.36" y1="8.92969" x2="15.36" y2="24.2897" gradientUnits="userSpaceOnUse">
<stop stop-color="#FF5F9B"/>
<stop offset="1" stop-color="#2F67FF"/>
</linearGradient>
<clipPath id="clip0_364_15">
<rect width="15.36" height="15.36" fill="white" transform="translate(7.67999 8.92969)"/>
</clipPath>
</defs>
</svg>
