<svg width="17" height="16" viewBox="0 0 17 16" fill="none" xmlns="http://www.w3.org/2000/svg">
<g clip-path="url(#clip0_494_2170)">
<path d="M1.68236 3.62398C1.41503 2.89648 1.6097 2.10648 2.19103 1.56211C2.78036 1.01023 3.6357 0.826485 4.42236 1.08211C5.9777 1.58711 7.6397 2.25336 9.36236 3.06211C12.8457 4.69773 15.2624 6.31773 16.2297 7.21836H3.40636C2.54036 5.79523 1.97036 4.40773 1.68236 3.62398ZM3.40636 8.46898C2.5397 9.89211 1.97036 11.2802 1.68236 12.0634C1.41503 12.7909 1.6097 13.5809 2.19103 14.1252C2.7817 14.6802 3.64636 14.8577 4.42236 14.6052C5.9777 14.1002 7.6397 13.434 9.36236 12.6252C12.8084 11.0065 15.221 9.40273 16.2284 8.46961H3.4057L3.40636 8.46898Z" fill="white"/>
</g>
<defs>
<clipPath id="clip0_494_2170">
<rect width="16" height="15" fill="white" transform="translate(0.896484 0.34375)"/>
</clipPath>
</defs>
</svg>
