<svg width="16" height="15" viewBox="0 0 16 15" fill="none" xmlns="http://www.w3.org/2000/svg">
<path d="M14.2559 10.751V10.126C14.2559 8.40098 12.8559 7.00098 11.1309 7.00098H8.63086V4.50098C9.31836 4.50098 9.88086 3.93848 9.88086 3.25098V2.00098C9.88086 1.31348 9.31836 0.750977 8.63086 0.750977H7.38086C6.69336 0.750977 6.13086 1.31348 6.13086 2.00098V3.25098C6.13086 3.93848 6.69336 4.50098 7.38086 4.50098V7.00098H4.88086C3.15586 7.00098 1.75586 8.40098 1.75586 10.126V10.751C1.06836 10.751 0.505859 11.3135 0.505859 12.001V13.251C0.505859 13.9385 1.06836 14.501 1.75586 14.501H3.00586C3.69336 14.501 4.25586 13.9385 4.25586 13.251V12.001C4.25586 11.3135 3.69336 10.751 3.00586 10.751V10.126C3.00586 9.09473 3.84961 8.25098 4.88086 8.25098H7.38086V10.751C6.69336 10.751 6.13086 11.3135 6.13086 12.001V13.251C6.13086 13.9385 6.69336 14.501 7.38086 14.501H8.63086C9.31836 14.501 9.88086 13.9385 9.88086 13.251V12.001C9.88086 11.3135 9.31836 10.751 8.63086 10.751V8.25098H11.1309C12.1621 8.25098 13.0059 9.09473 13.0059 10.126V10.751C12.3184 10.751 11.7559 11.3135 11.7559 12.001V13.251C11.7559 13.9385 12.3184 14.501 13.0059 14.501H14.2559C14.9434 14.501 15.5059 13.9385 15.5059 13.251V12.001C15.5059 11.3135 14.9434 10.751 14.2559 10.751ZM7.38086 2.00098H8.63086V3.25098H7.38086V2.00098ZM3.00586 13.251H1.75586V12.001H3.00586V13.251ZM8.63086 13.251H7.38086V12.001H8.63086V13.251ZM14.2559 13.251H13.0059V12.001H14.2559V13.251Z" fill="#989898"/>
</svg>
