<svg width="14" height="15" viewBox="0 0 14 15" fill="none" xmlns="http://www.w3.org/2000/svg">
<path d="M8.31209 7.62598H8.38151C9.66834 7.62598 10.7148 6.57948 10.7148 5.29264V2.95931C10.7148 1.67248 9.66834 0.625977 8.38151 0.625977H4.88151C3.59526 0.625977 2.54818 1.67248 2.54818 2.95931V5.29264C2.54818 6.57948 3.59468 7.62598 4.88151 7.62598H4.97134L6.04176 8.56923C6.21093 8.71856 6.42209 8.79323 6.63326 8.79323C6.84268 8.79323 7.05151 8.71973 7.21601 8.57389L8.31209 7.62598ZM5.57743 6.60514C5.47068 6.51123 5.33418 6.45931 5.19184 6.45931H4.88151C4.23809 6.45931 3.71484 5.93606 3.71484 5.29264V2.95931C3.71484 2.31589 4.23809 1.79264 4.88151 1.79264H8.38151C9.02493 1.79264 9.54818 2.31589 9.54818 2.95931V5.29264C9.54818 5.93606 9.02493 6.45931 8.38151 6.45931H8.09451C7.95451 6.45931 7.81918 6.51006 7.71301 6.60106L6.63268 7.53556L5.57743 6.60514ZM8.51801 3.93931L7.04101 5.53414C6.81293 5.75989 6.51893 5.87131 6.22784 5.87131C5.94551 5.87131 5.66551 5.76573 5.45084 5.55631L4.74968 4.81898C4.52801 4.58564 4.53734 4.21639 4.77068 3.99473C5.00401 3.77248 5.37326 3.78239 5.59551 4.01573L6.23426 4.68773L7.66109 3.14539C7.87984 2.90856 8.24909 2.89456 8.48534 3.11389C8.72159 3.33264 8.73618 3.70189 8.51743 3.93814L8.51801 3.93931ZM3.13151 8.79264C1.52093 8.79264 0.214844 10.0987 0.214844 11.7093C0.214844 13.3199 1.52093 14.626 3.13151 14.626C4.74209 14.626 6.04818 13.3199 6.04818 11.7093C6.04818 10.0987 4.74209 8.79264 3.13151 8.79264ZM4.32209 13.3298C4.18676 13.3298 4.06601 13.2435 4.02226 13.1151L3.87409 12.6817H2.39009L2.24193 13.1151C2.19818 13.2435 2.07743 13.3298 1.94151 13.3298C1.72451 13.3298 1.57168 13.1169 1.64109 12.9116L2.43093 10.5584C2.60184 10.1693 2.83518 10.0894 3.13209 10.0894C3.42901 10.0894 3.66234 10.1693 3.82859 10.5467L4.62309 12.9121C4.69193 13.1175 4.53909 13.3304 4.32268 13.3304L4.32209 13.3298ZM3.22484 10.7853L3.65184 12.0331H2.61118L3.03409 10.7958C3.04751 10.7684 3.09943 10.7363 3.13151 10.7363C3.16476 10.7363 3.21434 10.7643 3.22484 10.7853ZM10.4558 11.385H9.48343V11.0606C9.48343 10.8816 9.62868 10.7363 9.80776 10.7363H10.4413C10.6104 10.7363 10.7615 10.8594 10.7784 11.0274C10.7977 11.2205 10.6454 11.385 10.4558 11.385ZM11.1022 12.3901C11.0853 12.5581 10.9348 12.6811 10.7656 12.6811H9.80718C9.62809 12.6811 9.48343 12.5359 9.48343 12.3568V12.0325H10.7796C10.9692 12.0325 11.1214 12.197 11.1022 12.3901ZM10.1315 8.79264C8.52093 8.79264 7.21484 10.0987 7.21484 11.7093C7.21484 13.3199 8.52093 14.626 10.1315 14.626C11.7421 14.626 13.0482 13.3199 13.0482 11.7093C13.0482 10.0987 11.7421 8.79264 10.1315 8.79264ZM10.7539 13.3298H9.87193C9.29909 13.3298 8.83476 12.8655 8.83476 12.2926V11.126C8.83476 10.5531 9.29909 10.0888 9.93318 10.0888H10.4278C10.9593 10.0888 11.4131 10.5036 11.4271 11.035C11.4318 11.2181 11.3857 11.3902 11.3023 11.5384C11.5928 11.7245 11.7788 12.0611 11.7485 12.4373C11.7077 12.9466 11.2643 13.3298 10.7539 13.3298Z" fill="#989898"/>
</svg>
