<svg width="14" height="14" viewBox="0 0 14 14" fill="none" xmlns="http://www.w3.org/2000/svg">
<path d="M1.27381 2.02137C1.27381 1.27333 1.87993 0.667208 2.62797 0.667208C3.37601 0.667208 3.98214 1.27333 3.98214 2.02137C3.98214 2.76942 3.37601 3.37554 2.62797 3.37554C1.87993 3.37554 1.27381 2.76942 1.27381 2.02137ZM5.33631 10.4172V9.33387H2.08631V10.9589C2.08631 11.0168 2.07656 11.0748 2.05814 11.13L1.51647 12.755C1.42222 13.0416 1.10806 13.1916 0.831264 13.0974C0.547973 13.0031 0.394139 12.6965 0.488931 12.4122L1.00243 10.8706V5.54221C1.00243 4.64629 1.73151 3.91721 2.62743 3.91721H5.25939C5.37314 3.91721 5.48201 3.88254 5.5741 3.81646L7.00843 2.79162C7.28468 1.27767 8.61068 0.125 10.2032 0.125C11.9956 0.125 13.4532 1.58262 13.4532 3.375C13.4532 5.16737 11.9956 6.625 10.2032 6.625C8.66106 6.625 7.36918 5.54437 7.03768 4.10137L6.20351 4.69721C5.92672 4.89492 5.60064 5 5.25939 5H4.25243V8.25H5.33576C5.93322 8.25 6.4191 8.73587 6.4191 9.33333V10.4167C6.4191 10.7162 6.17697 10.9583 5.87743 10.9583C5.57789 10.9583 5.33576 10.7162 5.33576 10.4167L5.33631 10.4172ZM8.03706 3.37554C8.03706 4.57046 9.00881 5.54221 10.2037 5.54221C11.3986 5.54221 12.3704 4.57046 12.3704 3.37554C12.3704 2.18062 11.3986 1.20887 10.2037 1.20887C9.00881 1.20887 8.03706 2.18062 8.03706 3.37554ZM2.08631 8.25054H3.16964V5.00054H2.62797C2.32897 5.00054 2.08631 5.24321 2.08631 5.54221V8.25054ZM12.6109 7.26417L5.56922 12.1505C5.32385 12.3206 5.26264 12.6586 5.43326 12.9045C5.60497 13.1515 5.94406 13.21 6.18726 13.0405L13.2289 8.15412C13.4743 7.98404 13.5355 7.64604 13.3649 7.40013C13.1948 7.15475 12.8568 7.09354 12.6109 7.26417Z" fill="#989898"/>
</svg>
