<svg width="14" height="14" viewBox="0 0 14 14" fill="none" xmlns="http://www.w3.org/2000/svg">
<path d="M5.17187 1.75098L5.17187 11.501C5.17187 12.3947 5.90313 13.126 6.79688 13.126C7.69063 13.126 8.42187 12.3947 8.42187 11.501L8.42187 1.75098C8.42187 0.857226 7.69062 0.125976 6.79687 0.125976C5.90312 0.125976 5.17187 0.857226 5.17187 1.75098ZM7.33854 1.75098L7.33854 11.501C7.33854 11.7989 7.09479 12.0426 6.79687 12.0426C6.49896 12.0426 6.25521 11.7989 6.25521 11.501L6.25521 1.75098C6.25521 1.45306 6.49896 1.20931 6.79687 1.20931C7.09479 1.20931 7.33854 1.45306 7.33854 1.75098ZM3.54687 11.501L3.54687 5.00098C3.54687 4.10723 2.81562 3.37598 1.92187 3.37598C1.02812 3.37598 0.296875 4.10723 0.296875 5.00098L0.296875 11.501C0.296875 12.3947 1.02813 13.126 1.92188 13.126C2.81563 13.126 3.54687 12.3947 3.54687 11.501ZM1.38021 11.501L1.38021 5.00098C1.38021 4.70306 1.62396 4.45931 1.92187 4.45931C2.21979 4.45931 2.46354 4.70306 2.46354 5.00098L2.46354 11.501C2.46354 11.7989 2.21979 12.0426 1.92187 12.0426C1.62396 12.0426 1.38021 11.7989 1.38021 11.501ZM10.0469 8.25098L10.0469 11.501C10.0469 12.3947 10.7781 13.126 11.6719 13.126C12.5656 13.126 13.2969 12.3947 13.2969 11.501L13.2969 8.25098C13.2969 7.35723 12.5656 6.62598 11.6719 6.62598C10.7781 6.62598 10.0469 7.35723 10.0469 8.25098ZM12.2135 8.25098L12.2135 11.501C12.2135 11.7989 11.9698 12.0426 11.6719 12.0426C11.374 12.0426 11.1302 11.7989 11.1302 11.501L11.1302 8.25098C11.1302 7.95306 11.374 7.70931 11.6719 7.70931C11.9698 7.70931 12.2135 7.95306 12.2135 8.25098Z" fill="#989898"/>
</svg>
