<svg width="15" height="15" viewBox="0 0 15 15" fill="none" xmlns="http://www.w3.org/2000/svg">
<g clip-path="url(#clip0_388_4149)">
<path d="M11.3968 3.15833L10.3999 2.55108L11.5584 0.649414L12.5553 1.25666L11.3968 3.15833ZM14.4074 3.2785L12.4643 4.15583L12.9438 5.21866L14.8869 4.34133L14.4074 3.2785ZM11.1757 4.29933C12.0746 5.18425 12.5699 6.3655 12.5699 7.62608C12.5699 8.96483 11.9924 10.24 10.9844 11.1255C10.5095 11.5437 10.2365 12.1947 10.2365 12.9128V14.6261H5.56987V12.8352C5.56987 12.1615 5.30562 11.5455 4.84421 11.1453C3.77321 10.2161 3.18871 8.8715 3.24004 7.45516C3.32696 5.01741 5.38379 3.00083 7.82388 2.96058C9.07804 2.93608 10.2768 3.41441 11.1757 4.29933ZM9.06987 12.9134C9.06987 12.7022 9.09087 12.4957 9.12354 12.2933H6.69163C6.71846 12.4712 6.73654 12.6515 6.73654 12.8358V13.46H9.06987V12.9134ZM11.4032 7.62666C11.4032 6.68108 11.0316 5.79441 10.3573 5.13175C9.68354 4.46791 8.78754 4.11033 7.84313 4.12725C6.01263 4.15758 4.47087 5.66958 4.40496 7.49716C4.36704 8.55883 4.80571 9.56741 5.60779 10.2645C5.88837 10.5077 6.12054 10.8006 6.30079 11.1267H7.31871V8.686C6.64146 8.4445 6.15204 7.80283 6.15204 7.04333H7.31871C7.31871 7.36533 7.58004 7.62666 7.90204 7.62666C8.22404 7.62666 8.48537 7.36533 8.48537 7.04333H9.65204C9.65204 7.80283 9.16263 8.4445 8.48537 8.686V11.1267H9.51612C9.69812 10.7947 9.93204 10.4972 10.2132 10.2499C10.9686 9.5855 11.402 8.63 11.402 7.62666H11.4032ZM5.40946 2.55108L4.25096 0.649414L3.25404 1.25666L4.41196 3.15833L5.40946 2.55108ZM1.40137 3.2785L0.921875 4.34133L2.86437 5.21866L3.34387 4.15583L1.40137 3.2785Z" fill="#989898"/>
</g>
<defs>
<clipPath id="clip0_388_4149">
<rect width="14" height="14" fill="white" transform="translate(0.902344 0.625977)"/>
</clipPath>
</defs>
</svg>
