<svg width="15" height="15" viewBox="0 0 15 15" fill="none" xmlns="http://www.w3.org/2000/svg">
<g clip-path="url(#clip0_388_4161)">
<path d="M9.31209 7.62598H9.38151C10.6683 7.62598 11.7148 6.57948 11.7148 5.29264V2.95931C11.7148 1.67248 10.6683 0.625977 9.38151 0.625977H5.88151C4.59526 0.625977 3.54818 1.67248 3.54818 2.95931V5.29264C3.54818 6.57948 4.59468 7.62598 5.88151 7.62598H5.97134L7.04176 8.56923C7.21093 8.71856 7.42209 8.79323 7.63326 8.79323C7.84268 8.79323 8.05151 8.71973 8.21601 8.57389L9.31209 7.62598ZM6.57743 6.60514C6.47068 6.51123 6.33418 6.45931 6.19184 6.45931H5.88151C5.23809 6.45931 4.71484 5.93606 4.71484 5.29264V2.95931C4.71484 2.31589 5.23809 1.79264 5.88151 1.79264H9.38151C10.0249 1.79264 10.5482 2.31589 10.5482 2.95931V5.29264C10.5482 5.93606 10.0249 6.45931 9.38151 6.45931H9.09451C8.95451 6.45931 8.81918 6.51006 8.71301 6.60106L7.63268 7.53556L6.57743 6.60514ZM9.51801 3.93931L8.04101 5.53414C7.81293 5.75989 7.51893 5.87131 7.22784 5.87131C6.94551 5.87131 6.66551 5.76573 6.45084 5.55631L5.74968 4.81898C5.52801 4.58564 5.53734 4.21639 5.77068 3.99473C6.00401 3.77248 6.37326 3.78239 6.59551 4.01573L7.23426 4.68773L8.66109 3.14539C8.87984 2.90856 9.24909 2.89456 9.48534 3.11389C9.72159 3.33264 9.73618 3.70189 9.51743 3.93814L9.51801 3.93931ZM4.13151 8.79264C2.52093 8.79264 1.21484 10.0987 1.21484 11.7093C1.21484 13.3199 2.52093 14.626 4.13151 14.626C5.74209 14.626 7.04818 13.3199 7.04818 11.7093C7.04818 10.0987 5.74209 8.79264 4.13151 8.79264ZM5.32209 13.3298C5.18676 13.3298 5.06601 13.2435 5.02226 13.1151L4.87409 12.6817H3.39009L3.24193 13.1151C3.19818 13.2435 3.07743 13.3298 2.94151 13.3298C2.72451 13.3298 2.57168 13.1169 2.64109 12.9116L3.43093 10.5584C3.60184 10.1693 3.83518 10.0894 4.13209 10.0894C4.42901 10.0894 4.66234 10.1693 4.82859 10.5467L5.62309 12.9121C5.69193 13.1175 5.53909 13.3304 5.32268 13.3304L5.32209 13.3298ZM4.22484 10.7853L4.65184 12.0331H3.61118L4.03409 10.7958C4.04751 10.7684 4.09943 10.7363 4.13151 10.7363C4.16476 10.7363 4.21434 10.7643 4.22484 10.7853ZM11.4558 11.385H10.4834V11.0606C10.4834 10.8816 10.6287 10.7363 10.8078 10.7363H11.4413C11.6104 10.7363 11.7615 10.8594 11.7784 11.0274C11.7977 11.2205 11.6454 11.385 11.4558 11.385ZM12.1022 12.3901C12.0853 12.5581 11.9348 12.6811 11.7656 12.6811H10.8072C10.6281 12.6811 10.4834 12.5359 10.4834 12.3568V12.0325H11.7796C11.9692 12.0325 12.1214 12.197 12.1022 12.3901ZM11.1315 8.79264C9.52093 8.79264 8.21484 10.0987 8.21484 11.7093C8.21484 13.3199 9.52093 14.626 11.1315 14.626C12.7421 14.626 14.0482 13.3199 14.0482 11.7093C14.0482 10.0987 12.7421 8.79264 11.1315 8.79264ZM11.7539 13.3298H10.8719C10.2991 13.3298 9.83476 12.8655 9.83476 12.2926V11.126C9.83476 10.5531 10.2991 10.0888 10.9332 10.0888H11.4278C11.9593 10.0888 12.4131 10.5036 12.4271 11.035C12.4318 11.2181 12.3857 11.3902 12.3023 11.5384C12.5928 11.7245 12.7788 12.0611 12.7485 12.4373C12.7077 12.9466 12.2643 13.3298 11.7539 13.3298Z" fill="#989898"/>
</g>
<defs>
<clipPath id="clip0_388_4161">
<rect width="14" height="14" fill="white" transform="translate(0.630859 0.625977)"/>
</clipPath>
</defs>
</svg>
