<svg width="15" height="15" viewBox="0 0 15 15" fill="none" xmlns="http://www.w3.org/2000/svg">
<g clip-path="url(#clip0_388_4145)">
<path d="M11.3934 8.66023C11.0428 8.05881 10.1736 8.05881 9.82304 8.66023L7.14029 13.2592C6.78679 13.8653 7.22371 14.626 7.92546 14.626H13.291C13.9927 14.626 14.4296 13.8647 14.0761 13.2592L11.3934 8.66023ZM10.6082 14.0426C10.2862 14.0426 10.0249 13.7813 10.0249 13.4593C10.0249 13.1373 10.2862 12.876 10.6082 12.876C10.9302 12.876 11.1915 13.1373 11.1915 13.4593C11.1915 13.7813 10.9302 14.0426 10.6082 14.0426ZM11.1915 11.7093C11.1915 12.0313 10.9302 12.2926 10.6082 12.2926C10.2862 12.2926 10.0249 12.0313 10.0249 11.7093V10.5426C10.0249 10.2206 10.2862 9.95931 10.6082 9.95931C10.9302 9.95931 11.1915 10.2206 11.1915 10.5426V11.7093ZM14.6915 4.12598V10.251C14.6915 10.5736 14.4308 10.8343 14.1082 10.8343C13.7856 10.8343 13.5249 10.5736 13.5249 10.251V4.12598C13.5249 3.95448 13.4496 3.79231 13.319 3.68089C13.1854 3.56889 13.015 3.52223 12.8395 3.55081C12.5694 3.59456 12.3582 3.87456 12.3582 4.18839V6.45931C12.3582 6.78189 12.0975 7.04264 11.7749 7.04264C11.4523 7.04264 11.1915 6.78189 11.1915 6.45931V2.95931C11.1915 2.63731 10.9302 2.37598 10.6082 2.37598C10.2862 2.37598 10.0249 2.63731 10.0249 2.95931V6.45931C10.0249 6.78189 9.76413 7.04264 9.44154 7.04264C9.11896 7.04264 8.85821 6.78189 8.85821 6.45931V2.37598C8.85821 2.05398 8.59688 1.79264 8.27488 1.79264C7.95288 1.79264 7.69154 2.05398 7.69154 2.37598V6.45931C7.69154 6.78189 7.43079 7.04264 7.10821 7.04264C6.78563 7.04264 6.52488 6.78189 6.52488 6.45931V3.60506C6.52488 3.29123 6.31371 3.01123 6.04363 2.96748C5.86688 2.93773 5.69654 2.98439 5.56413 3.09756C5.43346 3.20839 5.35821 3.37114 5.35821 3.54264V9.95931C5.35821 10.1915 5.22054 10.4021 5.00704 10.4942C4.79529 10.5858 4.54679 10.5444 4.37646 10.3857L2.83763 8.94956C2.72388 8.84281 2.58096 8.79498 2.42054 8.79264C2.26538 8.79789 2.12129 8.86323 2.01571 8.97639C1.79521 9.21148 1.80804 9.58189 2.04254 9.80239L4.64888 12.3148C4.93821 12.5942 5.26663 12.8281 5.62363 13.0101C5.91004 13.1566 6.02438 13.5083 5.87796 13.7953C5.77471 13.9971 5.57054 14.1132 5.35763 14.1132C5.26838 14.1132 5.17796 14.0928 5.09279 14.0496C4.63371 13.8151 4.21138 13.5141 3.83921 13.1548L1.23871 10.6488C0.541044 9.99489 0.504293 8.88539 1.16346 8.18073C1.82146 7.47781 2.92921 7.43931 3.63388 8.09731L4.19096 8.61764V3.54264C4.19096 3.02814 4.41613 2.54223 4.80813 2.20914C5.20013 1.87548 5.71813 1.73373 6.23088 1.81598C6.35688 1.83639 6.47588 1.87548 6.59079 1.92331C6.79146 1.17839 7.46638 0.625977 8.27371 0.625977C8.89496 0.625977 9.43863 0.95381 9.74896 1.44323C10.0039 1.29856 10.2938 1.20931 10.607 1.20931C11.4144 1.20931 12.0893 1.76173 12.2905 2.50664C12.4055 2.45881 12.5245 2.41973 12.6505 2.39931C13.1638 2.31648 13.6818 2.45881 14.0732 2.79248C14.4652 3.12556 14.6904 3.61148 14.6904 4.12598H14.6915Z" fill="#989898"/>
</g>
<defs>
<clipPath id="clip0_388_4145">
<rect width="14" height="14" fill="white" transform="translate(0.691406 0.625977)"/>
</clipPath>
</defs>
</svg>
