<svg width="15" height="14" viewBox="0 0 15 14" fill="none" xmlns="http://www.w3.org/2000/svg">
<g clip-path="url(#clip0_1_39)">
<path d="M2.75862 0H4.50862C5.79727 0 6.84194 1.04467 6.84194 2.33332V4.08332C6.84194 5.37198 5.79727 6.41665 4.50862 6.41665H2.75862C1.46996 6.41668 0.425293 5.37201 0.425293 4.08332V2.33332C0.425293 1.04467 1.46996 0 2.75862 0Z" fill="white"/>
<path d="M10.342 0H12.092C13.3806 0 14.4253 1.04467 14.4253 2.33332V4.08332C14.4253 5.37198 13.3806 6.41665 12.092 6.41665H10.342C9.05333 6.41665 8.00867 5.37198 8.00867 4.08332V2.33332C8.00864 1.04467 9.05331 0 10.342 0Z" fill="white"/>
<path d="M2.75862 7.58332H4.50862C5.79727 7.58332 6.84194 8.62799 6.84194 9.91665V11.6666C6.84194 12.9553 5.79727 14 4.50862 14H2.75862C1.46996 14 0.425293 12.9553 0.425293 11.6667V9.91668C0.425293 8.62799 1.46996 7.58332 2.75862 7.58332Z" fill="white"/>
<path d="M10.342 7.58332H12.092C13.3806 7.58332 14.4253 8.62799 14.4253 9.91665V11.6666C14.4253 12.9553 13.3806 14 12.092 14H10.342C9.05333 14 8.00867 12.9553 8.00867 11.6667V9.91668C8.00864 8.62799 9.05331 7.58332 10.342 7.58332Z" fill="white"/>
</g>
<defs>
<clipPath id="clip0_1_39">
<rect width="14" height="14" fill="white" transform="translate(0.425293)"/>
</clipPath>
</defs>
</svg>
