<svg width="15" height="14" viewBox="0 0 15 14" fill="none" xmlns="http://www.w3.org/2000/svg">
<g clip-path="url(#clip0_1_55)">
<path d="M12.6904 3.5H10.9404C10.9404 2.57174 10.5717 1.6815 9.9153 1.02513C9.25893 0.368749 8.36869 0 7.44043 0C6.51217 0 5.62193 0.368749 4.96556 1.02513C4.30918 1.6815 3.94043 2.57174 3.94043 3.5H2.19043C1.7263 3.5 1.28118 3.68437 0.952993 4.01256C0.624804 4.34075 0.44043 4.78587 0.44043 5.25L0.44043 11.0833C0.441356 11.8566 0.748944 12.5979 1.29572 13.1447C1.84251 13.6915 2.58383 13.9991 3.3571 14H11.5238C12.297 13.9991 13.0384 13.6915 13.5851 13.1447C14.1319 12.5979 14.4395 11.8566 14.4404 11.0833V5.25C14.4404 4.78587 14.2561 4.34075 13.9279 4.01256C13.5997 3.68437 13.1546 3.5 12.6904 3.5ZM7.44043 1.16667C8.05927 1.16667 8.65276 1.4125 9.09035 1.85008C9.52793 2.28767 9.77376 2.88116 9.77376 3.5H5.1071C5.1071 2.88116 5.35293 2.28767 5.79051 1.85008C6.2281 1.4125 6.82159 1.16667 7.44043 1.16667ZM13.2738 11.0833C13.2738 11.5475 13.0894 11.9926 12.7612 12.3208C12.433 12.649 11.9879 12.8333 11.5238 12.8333H3.3571C2.89297 12.8333 2.44785 12.649 2.11966 12.3208C1.79147 11.9926 1.6071 11.5475 1.6071 11.0833V5.25C1.6071 5.09529 1.66855 4.94692 1.77795 4.83752C1.88735 4.72812 2.03572 4.66667 2.19043 4.66667H3.94043V5.83333C3.94043 5.98804 4.00189 6.13642 4.11128 6.24581C4.22068 6.35521 4.36905 6.41667 4.52376 6.41667C4.67847 6.41667 4.82685 6.35521 4.93624 6.24581C5.04564 6.13642 5.1071 5.98804 5.1071 5.83333V4.66667H9.77376V5.83333C9.77376 5.98804 9.83522 6.13642 9.94462 6.24581C10.054 6.35521 10.2024 6.41667 10.3571 6.41667C10.5118 6.41667 10.6602 6.35521 10.7696 6.24581C10.879 6.13642 10.9404 5.98804 10.9404 5.83333V4.66667H12.6904C12.8451 4.66667 12.9935 4.72812 13.1029 4.83752C13.2123 4.94692 13.2738 5.09529 13.2738 5.25V11.0833Z" fill="#1E1E1E"/>
</g>
<defs>
<clipPath id="clip0_1_55">
<rect width="14" height="14" fill="white" transform="translate(0.44043)"/>
</clipPath>
</defs>
</svg>
