<svg width="40" height="40" viewBox="0 0 40 40" fill="none" xmlns="http://www.w3.org/2000/svg">
<g clip-path="url(#clip0_5606_15561)">
<path d="M31.7383 1.67139H8.98828C6.83419 1.67397 4.76906 2.53082 3.24589 4.05399C1.72271 5.57717 0.865862 7.6423 0.863281 9.79639L0.863281 29.2964C0.865862 31.4505 1.72271 33.5156 3.24589 35.0388C4.76906 36.562 6.83419 37.4188 8.98828 37.4214H31.7383C33.8924 37.4188 35.9575 36.562 37.4807 35.0388C39.0038 33.5156 39.8607 31.4505 39.8633 29.2964V9.79639C39.8607 7.6423 39.0038 5.57717 37.4807 4.05399C35.9575 2.53082 33.8924 1.67397 31.7383 1.67139ZM8.98828 4.92139H31.7383C32.7113 4.9233 33.6615 5.21635 34.4666 5.76282C35.2717 6.30929 35.8948 7.08418 36.2558 7.98776L23.8115 20.4336C22.8957 21.3458 21.6558 21.8579 20.3633 21.8579C19.0707 21.8579 17.8308 21.3458 16.915 20.4336L4.47078 7.98776C4.83177 7.08418 5.4549 6.30929 6.25998 5.76282C7.06506 5.21635 8.01525 4.9233 8.98828 4.92139ZM31.7383 34.1714H8.98828C7.69535 34.1714 6.45538 33.6578 5.54114 32.7435C4.6269 31.8293 4.11328 30.5893 4.11328 29.2964V12.2339L14.6173 22.7314C16.1426 24.2528 18.2089 25.1072 20.3633 25.1072C22.5176 25.1072 24.584 24.2528 26.1093 22.7314L36.6133 12.2339V29.2964C36.6133 30.5893 36.0997 31.8293 35.1854 32.7435C34.2712 33.6578 33.0312 34.1714 31.7383 34.1714Z" fill="white"/>
</g>
<defs>
<clipPath id="clip0_5606_15561">
<rect width="39" height="39" fill="white" transform="translate(0.863281 0.0463867)"/>
</clipPath>
</defs>
</svg>
