<svg width="1280" height="81" viewBox="0 0 1280 81" fill="none" xmlns="http://www.w3.org/2000/svg">
<path d="M638.072 67.4902H641.611H645.763L649.013 68.4289L650.529 70.8482L653.526 75.6865L630.729 75.4194L632.439 74.4951L635.581 68.9706L636.664 68.0318L638.072 67.4902Z" fill="#D9D9D9"/>
<path fill-rule="evenodd" clip-rule="evenodd" d="M627.596 0.806827H656.872C657.643 0.806827 658.273 1.45518 658.273 2.24734V64.2949C657.157 67.8029 656.042 71.3109 654.926 74.8189C654.74 75.2094 654.336 75.4004 653.772 75.4428C653.607 75.532 653.442 75.6211 653.277 75.7102L642.656 75.7582C638.959 75.744 635.262 75.7299 631.565 75.7158C631.425 75.6406 631.448 75.5807 631.293 75.5671C630.357 75.486 629.944 75.1902 629.818 74.7941L626.195 64.1872V52.3667V2.24734C626.195 1.45499 626.825 0.806641 627.596 0.806641V0.806827Z" stroke="black" stroke-width="0.8" stroke-miterlimit="22.9256"/>
<path fill-rule="evenodd" clip-rule="evenodd" d="M628.43 0.806641H635.24H642.176H650.691H656.237L651.434 4.55016C651.434 4.55016 650.688 5.28689 649.666 5.21786H635.426C635.426 5.21786 634.24 5.44037 633.166 4.38886L628.43 0.806641Z" stroke="black" stroke-miterlimit="22.9256" stroke-linejoin="round"/>
<path d="M632.043 6.67642L652.919 6.68219L657.758 1.13574" stroke="black" stroke-miterlimit="22.9256"/>
<path d="M632.116 6.75209L626.68 1.1582" stroke="black" stroke-miterlimit="22.9256"/>
<path d="M627.479 52.2393L631.734 64.5596C631.734 64.5596 631.763 65.1338 633.307 65.2897C634.852 65.4456 652.147 65.2897 652.147 65.2897C652.147 65.2897 653.378 65.306 653.664 64.4037L657.33 52.1807V52.64L653.768 64.5302C653.768 64.5302 653.664 65.5186 652.571 65.5924C651.479 65.6661 633.718 65.6703 633.718 65.6703C633.718 65.6703 631.732 65.8998 631.537 64.5298L627.479 52.3594" stroke="black" stroke-width="0.8" stroke-miterlimit="22.9256"/>
<path d="M631.383 75.5861L635.701 68.6187C635.827 68.3752 636.069 68.1192 636.273 67.9525C636.826 67.5012 637.509 67.3075 638.213 67.2978H646.412C646.711 67.2736 647.091 67.3281 647.376 67.4009C648.084 67.5819 648.698 67.975 649.156 68.5631L649.166 68.5761L653.542 75.5675M646.886 77.1065H646.816M637.98 77.0994H637.879" stroke="black" stroke-miterlimit="22.9256"/>
<path d="M631.676 75.7163L635.974 68.7818C635.974 68.7818 636.541 67.6458 638.211 67.6229H646.424C646.424 67.6229 647.916 67.4921 648.908 68.7663L653.254 75.7103M647.118 76.781H647.105M637.663 76.7732H637.624" stroke="black" stroke-miterlimit="22.9256"/>
<path d="M632.196 65.0967L630.445 75.6231" stroke="black" stroke-width="0.8" stroke-miterlimit="22.9256"/>
<path d="M653.141 65.0283L653.94 75.4608" stroke="black" stroke-width="0.8" stroke-miterlimit="22.9256"/>
<path d="M632.043 6.67676L632.194 65.0959" stroke="black" stroke-width="0.8" stroke-miterlimit="22.9256"/>
<path d="M652.98 6.74414L652.938 65.0286" stroke="black" stroke-width="0.8" stroke-miterlimit="22.9256"/>
<path fill-rule="evenodd" clip-rule="evenodd" d="M638.261 75.7354H637.43V76.3223C637.561 76.7203 637.794 77.0728 638.202 77.3628C638.398 78.6171 639.219 79.5047 642.375 79.5609C645.49 79.6164 646.33 78.6839 646.54 77.4252C647.147 76.9848 647.371 76.3945 647.446 75.7354H646.489H638.261Z" stroke="black" stroke-miterlimit="22.9256"/>
<path d="M647.492 75.7373C647.299 77.0911 646.367 78.122 642.373 78.0637C638.388 78.0057 637.45 77.0595 637.254 75.7386" stroke="black" stroke-miterlimit="22.9256"/>
<path d="M691.33 11.5889L691.134 11.7905" stroke="black"/>
<path d="M695.414 5.73926L695.218 5.94093" stroke="black"/>
<path d="M728.062 70.1382L728.258 69.9365" stroke="black"/>
<path d="M732.143 64.2895L732.34 64.0879" stroke="black" stroke-width="0.8"/>
<path d="M725.652 7.95801L725.637 7.95801" stroke="black"/>
<path d="M725.652 8.78371L725.652 7.95801" stroke="black"/>
<path d="M725.652 8.78418L725.637 8.78418" stroke="black"/>
<path d="M703.449 6.56836L703.449 6.58528" stroke="black"/>
<path d="M724.301 6.56836L703.45 6.56836" stroke="black"/>
<path d="M724.301 6.56836L724.301 6.58528" stroke="black"/>
<path d="M731.533 14.0088L731.517 14.0088" stroke="black"/>
<path d="M731.533 62.1422L731.533 14.0088" stroke="black" stroke-width="0.8"/>
<path d="M731.533 62.1426L731.517 62.1426" stroke="black" stroke-width="0.8"/>
<path d="M731.516 62.1426L731.31 62.1426" stroke="black" stroke-width="0.8"/>
<path d="M721.375 67.0938L721.359 67.0937" stroke="black"/>
<path d="M721.375 67.9198L721.375 67.0938" stroke="black"/>
<path d="M721.375 67.9199L721.359 67.9199" stroke="black"/>
<path d="M694.094 63.2601L694.094 63.2432" stroke="black" stroke-width="0.8"/>
<path d="M693.291 63.2588L694.094 63.2588" stroke="black" stroke-width="0.8"/>
<path d="M693.293 63.2601L693.293 63.2432" stroke="black" stroke-width="0.8"/>
<path d="M697.822 67.9199L697.838 67.9199" stroke="black"/>
<path d="M697.822 67.0938L697.822 67.9195" stroke="black"/>
<path d="M697.822 67.0937L697.838 67.0938" stroke="black"/>
<path d="M691.941 61.8682L691.957 61.8682" stroke="black" stroke-width="0.8"/>
<path d="M691.941 13.7344L691.941 61.8678" stroke="black" stroke-width="0.8"/>
<path d="M691.941 13.7344L691.957 13.7344" stroke="black"/>
<path d="M691.955 13.7344L692.16 13.7344" stroke="black"/>
<path d="M720.023 69.3109L720.023 69.2939" stroke="black"/>
<path d="M699.173 69.3096L720.023 69.3096" stroke="black"/>
<path d="M699.172 69.3109L699.172 69.2939" stroke="black"/>
<path d="M730.447 63.0322L730.447 63.2435" stroke="black" stroke-width="0.8"/>
<path d="M730.447 63.2601L730.447 63.2432" stroke="black" stroke-width="0.8"/>
<path d="M725.101 63.2588L730.447 63.2588" stroke="black" stroke-width="0.8"/>
<path d="M725.102 63.2601L725.102 63.2432" stroke="black" stroke-width="0.8"/>
<path d="M693.025 12.846L693.025 12.6348" stroke="black"/>
<path d="M693.025 12.6201L693.025 12.637" stroke="black"/>
<path d="M698.375 12.6201L693.029 12.6201" stroke="black"/>
<path d="M698.375 12.6201L698.375 12.637" stroke="black"/>
<path d="M720.959 68.9008L720.969 68.8916" stroke="black"/>
<path d="M720.025 69.3094L720.12 69.3057L720.214 69.295L720.308 69.2771L720.401 69.2525L720.492 69.2212L720.582 69.1834L720.668 69.1393L720.753 69.0889L720.833 69.0327L720.909 68.9705L720.979 68.9027L721.046 68.8296L721.106 68.7513L721.161 68.6689L721.209 68.5826L721.253 68.4931L721.289 68.4009L721.319 68.3066L721.344 68.2108L721.361 68.1141L721.372 68.0168L721.375 67.9199" stroke="black"/>
<path d="M720.025 69.294L720.109 69.2913L720.193 69.2832L720.274 69.2699L720.354 69.2517L720.433 69.2286L720.509 69.2008L720.583 69.1688L720.655 69.1325L720.723 69.0923L720.788 69.0485L720.85 69.0012L720.909 68.9508L720.965 68.8975" stroke="black"/>
<path d="M721.646 65.6185L721.699 65.4903L721.758 65.3643" stroke="black" stroke-width="0.8"/>
<path d="M721.76 65.3654L721.823 65.2434L721.889 65.1241L721.959 65.0074L722.034 64.8937L722.111 64.7829L722.193 64.6752L722.277 64.5708L722.366 64.4697L722.457 64.3721" stroke="black" stroke-width="0.8"/>
<path d="M722.457 64.3714L722.562 64.2679L722.67 64.1684L722.784 64.073L722.9 63.982L723.02 63.8956L723.144 63.8138L723.27 63.737L723.4 63.6651L723.533 63.5984L723.67 63.5371" stroke="black" stroke-width="0.8"/>
<path d="M723.667 63.5369L723.798 63.4837L723.933 63.4353L724.07 63.3918L724.211 63.3535L724.354 63.3206L724.5 63.2931L724.647 63.2715L724.797 63.2559L724.949 63.2463L725.102 63.2432" stroke="black" stroke-width="0.8"/>
<path d="M721.373 67.0944L721.377 66.9281L721.388 66.7616L721.405 66.5954L721.43 66.43L721.462 66.2656L721.5 66.1028L721.546 65.9418L721.599 65.7829L721.657 65.6267L721.723 65.4733L721.794 65.3232L721.872 65.1766L721.957 65.0335L722.048 64.8946L722.144 64.7598L722.246 64.6294L722.353 64.5038L722.464 64.3831L722.581 64.2676L722.703 64.1574L722.829 64.0529L722.961 63.954L723.096 63.861L723.235 63.7742L723.377 63.6936L723.522 63.6194L723.672 63.552L723.824 63.4912L723.978 63.4374L724.135 63.3904L724.293 63.3504L724.454 63.3177L724.615 63.292L724.777 63.2735L724.939 63.2624L725.102 63.2588" stroke="black" stroke-width="0.8"/>
<path d="M721.359 67.0934L721.362 66.9505L721.37 66.8089L721.383 66.6688L721.4 66.5303L721.421 66.3937L721.448 66.259L721.479 66.1264L721.514 65.9962L721.554 65.8682L721.597 65.7428L721.645 65.6201" stroke="black" stroke-width="0.8"/>
<path d="M731.516 62.1426L731.511 62.2365L731.499 62.3305L731.478 62.4237L731.45 62.5153L731.415 62.6046L731.372 62.6906L731.322 62.7726L731.294 62.8125L731.264 62.851L731.234 62.8868L731.2 62.9232" stroke="black" stroke-width="0.8"/>
<path d="M730.45 63.2577L730.532 63.2542L730.616 63.2438L730.699 63.2265L730.78 63.2026L730.861 63.1724L730.939 63.136L731.014 63.0934L731.085 63.045L731.153 62.9909L731.216 62.9313L731.273 62.8664L731.326 62.7969L731.373 62.7231L731.415 62.6459L731.45 62.5658L731.48 62.4834L731.503 62.3993L731.519 62.314L731.53 62.2283L731.533 62.1426" stroke="black" stroke-width="0.8"/>
<path d="M730.449 63.2424L730.533 63.2389L730.616 63.2287L730.698 63.212L730.78 63.1886L730.858 63.1587L730.934 63.1229L731.006 63.0811L731.076 63.0336L731.141 62.9808L731.203 62.9229" stroke="black" stroke-width="0.8"/>
<path d="M731.133 13.0476L731.123 13.0381" stroke="black"/>
<path d="M730.182 12.6201L730.182 12.637" stroke="black"/>
<path d="M731.533 14.0096L731.53 13.9126L731.519 13.8155L731.502 13.7189L731.478 13.6232L731.448 13.529L731.411 13.4368L731.367 13.3475L731.319 13.2612L731.265 13.1787L731.204 13.1006L731.139 13.0274L731.067 12.9595L730.991 12.8974L730.911 12.841L730.827 12.7906L730.74 12.7464L730.65 12.7085L730.559 12.6771L730.466 12.6525L730.372 12.6345L730.277 12.6237L730.183 12.6201" stroke="black"/>
<path d="M731.516 14.0098L731.513 13.9232L731.505 13.8376L731.492 13.7535L731.474 13.6709L731.451 13.5902L731.425 13.5119L731.394 13.436L731.358 13.3627L731.319 13.2923L731.276 13.2249L731.23 13.1609L731.181 13.1002L731.13 13.043" stroke="black"/>
<path d="M727.949 12.3412L727.824 12.2852L727.701 12.2246" stroke="black"/>
<path d="M727.699 12.2238L727.581 12.1599L727.465 12.0917L727.352 12.0194L727.241 11.9432L727.133 11.8631L727.029 11.7792L726.927 11.6919L726.829 11.601L726.734 11.5068" stroke="black"/>
<path d="M726.736 11.5067L726.636 11.3992L726.539 11.2875L726.447 11.1716L726.358 11.0519L726.274 10.9284L726.194 10.8012L726.119 10.6705L726.05 10.5366L725.985 10.3996L725.926 10.2598" stroke="black"/>
<path d="M725.926 10.2608L725.873 10.1253L725.826 9.98671L725.785 9.845L725.747 9.70054L725.715 9.55333L725.688 9.40359L725.667 9.25166L725.652 9.09763L725.642 8.94173L725.639 8.78418" stroke="black"/>
<path d="M729.379 12.6199L729.216 12.6162L729.055 12.6052L728.893 12.5869L728.733 12.5614L728.573 12.5288L728.414 12.4891L728.258 12.4424L728.104 12.3887L727.953 12.328L727.803 12.2606L727.657 12.1866L727.514 12.106L727.375 12.0191L727.24 11.9263L727.11 11.8275L726.983 11.7229L726.861 11.6129L726.743 11.4975L726.631 11.377L726.524 11.2515L726.422 11.1215L726.326 10.9868L726.236 10.8481L726.152 10.7052L726.074 10.5587L726.001 10.4086L725.936 10.2553L725.877 10.0988L725.825 9.93972L725.779 9.77832L725.74 9.61505L725.708 9.45035L725.684 9.28444L725.665 9.11787L725.655 8.95097L725.65 8.78418" stroke="black"/>
<path d="M729.379 12.6201L729.379 12.637" stroke="black"/>
<path d="M729.379 12.6332L729.24 12.6306L729.102 12.6227L728.966 12.6097L728.831 12.5919L728.699 12.5692L728.567 12.5419L728.439 12.51L728.312 12.4739L728.188 12.4335L728.066 12.3891L727.947 12.3408" stroke="black"/>
<path d="M725.252 6.99568L725.242 6.98633" stroke="black"/>
<path d="M725.652 7.95781L725.649 7.86088L725.638 7.76384L725.621 7.66714L725.598 7.57142L725.567 7.47724L725.53 7.38515L725.488 7.29571L725.438 7.20945L725.384 7.12704L725.323 7.04893L725.258 6.97566L725.186 6.90788L725.11 6.84572L725.03 6.78928L724.947 6.73889L724.859 6.69467L724.77 6.65682L724.678 6.62535L724.585 6.60071L724.491 6.58288L724.397 6.57199L724.302 6.56836" stroke="black"/>
<path d="M725.641 7.95807L725.638 7.87148L725.63 7.78589L725.617 7.70172L725.6 7.6191L725.578 7.53856L725.55 7.46012L725.519 7.3842L725.483 7.31093L725.445 7.24052L725.402 7.17319L725.356 7.10915L725.307 7.04842L725.255 6.99121" stroke="black"/>
<path d="M702.51 6.98047L702.507 6.98421L702.503 6.98795" stroke="black"/>
<path d="M702.098 7.95801L702.113 7.95801" stroke="black"/>
<path d="M703.449 6.56836L703.355 6.57199L703.261 6.58278L703.167 6.6006L703.074 6.62524L702.982 6.65649L702.892 6.69433L702.806 6.73845L702.722 6.78873L702.642 6.84506L702.566 6.90722L702.494 6.975L702.429 7.04816L702.368 7.12628L702.314 7.20879L702.264 7.29505L702.222 7.3846L702.184 7.4768L702.154 7.57109L702.13 7.66681L702.113 7.76362L702.102 7.86077L702.099 7.95781" stroke="black"/>
<path d="M702.509 6.97948L702.547 6.94303L702.586 6.90823L702.627 6.87386L702.67 6.84136L702.758 6.78262L702.85 6.7309L702.946 6.68665L703.044 6.64987L703.144 6.621L703.245 6.60003L703.348 6.58729L703.449 6.58301" stroke="black"/>
<path d="M701.828 10.2568L701.774 10.3851L701.715 10.5111" stroke="black"/>
<path d="M701.715 10.5127L701.653 10.6346L701.587 10.7541L701.516 10.8707L701.442 10.9845L701.364 11.0953L701.283 11.203L701.197 11.3074L701.11 11.4085L701.018 11.5061" stroke="black"/>
<path d="M701.018 11.5049L700.913 11.6084L700.805 11.7079L700.693 11.8033L700.576 11.8942L700.455 11.9806L700.332 12.0624L700.205 12.1393L700.074 12.2111L699.942 12.2778L699.806 12.3392" stroke="black"/>
<path d="M699.809 12.3389L699.677 12.392L699.542 12.4404L699.404 12.4839L699.264 12.5222L699.121 12.5552L698.976 12.5825L698.828 12.6041L698.678 12.6198L698.527 12.6294L698.374 12.6326" stroke="black"/>
<path d="M702.102 8.78418L702.098 8.95064L702.088 9.1171L702.069 9.28323L702.045 9.4487L702.013 9.61307L701.974 9.7759L701.929 9.93697L701.877 10.0958L701.818 10.2521L701.753 10.4054L701.68 10.5555L701.602 10.7022L701.518 10.8451L701.428 10.9841L701.332 11.1189L701.23 11.2493L701.123 11.3749L701.011 11.4956L700.893 11.6112L700.771 11.7213L700.645 11.8258L700.515 11.9247L700.38 12.0176L700.241 12.1045L700.099 12.185L699.952 12.2592L699.804 12.3267L699.652 12.3875L699.497 12.4414L699.34 12.4883L699.181 12.5282L699.021 12.5611L698.86 12.5867L698.698 12.6051L698.536 12.6162L698.374 12.6199" stroke="black"/>
<path d="M702.098 8.78418L702.113 8.78418" stroke="black"/>
<path d="M702.113 8.78418L702.111 8.92709L702.104 9.06869L702.091 9.20886L702.074 9.34737L702.051 9.48402L702.025 9.61868L701.994 9.75126L701.958 9.88152L701.919 10.0095L701.876 10.1348L701.829 10.2576" stroke="black"/>
<path d="M691.957 13.7347L691.961 13.6407L691.974 13.5468L691.994 13.4535L692.022 13.3618L692.059 13.2726L692.101 13.1867L692.152 13.1047L692.179 13.0648L692.209 13.0263L692.239 12.9904L692.273 12.9541" stroke="black"/>
<path d="M693.025 12.6201L692.942 12.6236L692.859 12.6341L692.776 12.6514L692.694 12.6751L692.615 12.7054L692.537 12.7419L692.462 12.7845L692.39 12.8329L692.322 12.8869L692.259 12.9466L692.201 13.0114L692.149 13.081L692.102 13.1546L692.06 13.2318L692.025 13.312L691.996 13.3944L691.972 13.4786L691.955 13.5639L691.945 13.6496L691.941 13.7353" stroke="black"/>
<path d="M693.025 12.6348L692.941 12.6382L692.858 12.6484L692.775 12.6652L692.695 12.6886L692.616 12.7184L692.54 12.7542L692.467 12.7961L692.398 12.8435L692.333 12.8963L692.272 12.9543" stroke="black"/>
<path d="M692.341 62.835L692.348 62.8424" stroke="black" stroke-width="0.8"/>
<path d="M691.943 61.8682L691.947 61.9651L691.956 62.0621L691.975 62.1588L691.998 62.2546L692.028 62.3487L692.065 62.4408L692.108 62.5303L692.157 62.6165L692.212 62.6989L692.272 62.777L692.338 62.8503L692.409 62.9181L692.485 62.9804L692.565 63.0367L692.649 63.0871L692.736 63.1313L692.826 63.1692L692.918 63.2006L693.011 63.2253L693.105 63.2432L693.199 63.254L693.293 63.2576" stroke="black" stroke-width="0.8"/>
<path d="M691.957 61.8682L691.96 61.9547L691.967 62.0403L691.98 62.1245L691.998 62.2071L692.021 62.2877L692.048 62.3661L692.079 62.442L692.115 62.5153L692.153 62.5857L692.196 62.6531L692.242 62.7171L692.291 62.7778L692.344 62.835" stroke="black" stroke-width="0.8"/>
<path d="M697.821 67.9199L697.825 68.0168L697.835 68.1139L697.852 68.2106L697.877 68.3063L697.907 68.4005L697.944 68.4926L697.987 68.582L698.035 68.6683L698.091 68.7507L698.151 68.8288L698.217 68.9021L698.288 68.9698L698.364 69.032L698.444 69.0884L698.528 69.1388L698.615 69.1831L698.705 69.2209L698.795 69.2523L698.89 69.277L698.984 69.2948L699.078 69.3057L699.172 69.3094" stroke="black"/>
<path d="M697.837 67.9199L697.841 68.0067L697.848 68.0927L697.861 68.1771L697.879 68.2599L697.902 68.3407L697.929 68.4194L697.96 68.4955L697.996 68.569L698.035 68.6396L698.078 68.707L698.125 68.7713L698.174 68.832L698.227 68.8893" stroke="black"/>
<path d="M695.526 63.5361L695.652 63.5921L695.773 63.6526" stroke="black" stroke-width="0.8"/>
<path d="M695.777 63.6533L695.895 63.7173L696.012 63.7856L696.125 63.8578L696.235 63.9341L696.343 64.0142L696.448 64.098L696.55 64.1854L696.648 64.2763L696.742 64.3704" stroke="black" stroke-width="0.8"/>
<path d="M696.739 64.3701L696.84 64.4776L696.937 64.5894L697.03 64.7051L697.118 64.8249L697.202 64.9485L697.281 65.0757L697.356 65.2063L697.426 65.3402L697.491 65.4773L697.551 65.6171" stroke="black" stroke-width="0.8"/>
<path d="M697.552 65.6162L697.604 65.7516L697.651 65.8903L697.694 66.032L697.731 66.1764L697.763 66.3236L697.79 66.4734L697.81 66.6253L697.826 66.7794L697.835 66.9353L697.838 67.0928" stroke="black" stroke-width="0.8"/>
<path d="M694.095 63.2588L694.256 63.2624L694.418 63.2734L694.579 63.2918L694.741 63.3172L694.9 63.3499L695.058 63.3896L695.214 63.4364L695.369 63.49L695.521 63.5507L695.67 63.6181L695.816 63.6922L695.959 63.7727L696.098 63.8595L696.232 63.9525L696.364 64.0513L696.49 64.1558L696.612 64.2658L696.729 64.3812L696.842 64.5017L696.949 64.6271L697.05 64.7573L697.146 64.8918L697.237 65.0307L697.322 65.1735L697.4 65.32L697.472 65.4701L697.538 65.6235L697.597 65.7799L697.649 65.939L697.694 66.1004L697.734 66.2637L697.766 66.4284L697.79 66.5942L697.808 66.7607L697.819 66.9276L697.822 67.0945" stroke="black" stroke-width="0.8"/>
<path d="M694.096 63.2432L694.235 63.2458L694.371 63.2536L694.508 63.2665L694.643 63.2844L694.776 63.3072L694.906 63.3344L695.035 63.3662L695.162 63.4025L695.286 63.4429L695.408 63.4872L695.527 63.5355" stroke="black" stroke-width="0.8"/>
<path d="M730.182 12.6201L729.38 12.6201" stroke="black"/>
<path d="M702.102 7.95801L702.102 8.78393" stroke="black"/>
<path d="M733.121 62.1418L733.121 7.68262" stroke="black" stroke-width="0.8"/>
<path d="M730.447 64.8934L730.598 64.889L730.748 64.8758L730.898 64.8539L731.047 64.8232L731.193 64.7841L731.338 64.7364L731.479 64.6804L731.617 64.6164L731.75 64.5445L731.881 64.4648L732.006 64.3777L732.126 64.2834L732.241 64.1823L732.35 64.0747L732.454 63.9608L732.55 63.8412L732.64 63.7161L732.723 63.586L732.799 63.4512L732.868 63.3123L732.928 63.1696L732.98 63.0236L733.025 62.8749L733.061 62.7237L733.089 62.5708L733.108 62.4164L733.119 62.2612L733.121 62.1416" stroke="black" stroke-width="0.8"/>
<path d="M730.447 64.8936L729.914 64.8936" stroke="black" stroke-width="0.8"/>
<path d="M729.916 64.8936L729.868 64.8947L729.821 64.898L729.773 64.9035L729.726 64.9112L729.679 64.9209L729.633 64.9329L729.587 64.947L729.542 64.9633L729.497 64.9816L729.453 65.0018L729.411 65.0241L729.37 65.0483L729.329 65.0744L729.289 65.1024L729.251 65.1322L729.215 65.1637L729.179 65.1968L729.145 65.2314L729.113 65.2677L729.082 65.3054L729.053 65.3445L729.025 65.3849L729 65.4265L728.976 65.4692L728.955 65.513L728.934 65.5577L728.916 65.6033L728.9 65.6497L728.886 65.6968L728.875 65.7445L728.865 65.7926L728.857 65.8413L728.852 65.8901L728.848 65.9393L728.847 65.9935" stroke="black" stroke-width="0.8"/>
<path d="M728.848 65.9932L728.848 68.1925" stroke="black" stroke-width="0.8"/>
<path d="M726.173 70.9442L726.324 70.9398L726.475 70.9266L726.625 70.9047L726.773 70.874L726.92 70.8349L727.064 70.7872L727.205 70.7312L727.343 70.6672L727.477 70.5952L727.607 70.5156L727.732 70.4284L727.852 70.3342L727.968 70.233L728.077 70.1254L728.18 70.0116L728.277 69.892L728.366 69.7669L728.45 69.6367L728.526 69.502L728.594 69.3631L728.654 69.2204L728.707 69.0744L728.751 68.9257L728.788 68.7745L728.816 68.6216L728.835 68.4672L728.846 68.312L728.848 68.1924" stroke="black"/>
<path d="M693.026 70.9453L726.172 70.9453" stroke="black"/>
<path d="M690.352 68.1943L690.357 68.3498L690.369 68.5049L690.391 68.659L690.421 68.8115L690.459 68.9621L690.505 69.1103L690.56 69.2554L690.622 69.3972L690.691 69.5352L690.769 69.6687L690.854 69.7977L690.946 69.9214L691.043 70.0397L691.148 70.152L691.259 70.2582L691.374 70.3577L691.496 70.4502L691.623 70.5356L691.754 70.6134L691.889 70.6835L692.028 70.7456L692.169 70.7996L692.314 70.8452L692.461 70.8824L692.609 70.911L692.759 70.9308L692.91 70.9419L693.025 70.9444" stroke="black"/>
<path d="M690.352 13.7363L690.352 68.1957" stroke="black" stroke-width="0.8"/>
<path d="M693.025 10.9834L692.875 10.9878L692.724 11.001L692.574 11.0229L692.426 11.0535L692.279 11.0928L692.136 11.1404L691.995 11.1963L691.857 11.2604L691.722 11.3324L691.593 11.412L691.467 11.4992L691.347 11.5935L691.231 11.6946L691.122 11.8022L691.019 11.916L690.922 12.0356L690.832 12.1607L690.749 12.2909L690.674 12.4255L690.606 12.5645L690.545 12.7072L690.492 12.8531L690.449 13.0019L690.412 13.153L690.384 13.306L690.365 13.4603L690.354 13.6155L690.351 13.7351" stroke="black"/>
<path d="M693.029 10.9834L693.562 10.9834" stroke="black"/>
<path d="M693.562 10.9839L693.61 10.9828L693.658 10.9795L693.705 10.974L693.752 10.9663L693.799 10.9565L693.846 10.9445L693.891 10.9303L693.937 10.9141L693.981 10.8959L694.025 10.8755L694.067 10.8533L694.109 10.8291L694.15 10.8029L694.189 10.775L694.227 10.7452L694.264 10.7138L694.299 10.6807L694.333 10.6459L694.366 10.6097L694.396 10.572L694.426 10.5329L694.452 10.4925L694.478 10.4509L694.501 10.4083L694.524 10.3645L694.543 10.3197L694.561 10.2741L694.577 10.2277L694.591 10.1806L694.603 10.1329L694.613 10.0847L694.621 10.0362L694.627 9.98732L694.63 9.93814L694.631 9.88379" stroke="black"/>
<path d="M694.631 9.88388L694.631 7.68457" stroke="black"/>
<path d="M697.305 4.93262L697.154 4.93702L697.003 4.95022L696.853 4.97211L696.705 5.0027L696.558 5.04198L696.415 5.08962L696.274 5.14551L696.136 5.20965L696.001 5.2816L695.872 5.36126L695.747 5.44839L695.626 5.54268L695.51 5.64379L695.401 5.75139L695.299 5.86526L695.201 5.98485L695.112 6.10994L695.028 6.2401L694.953 6.37476L694.885 6.51372L694.824 6.65642L694.772 6.80231L694.728 6.95116L694.691 7.10222L694.664 7.25526L694.644 7.40951L694.634 7.56474L694.631 7.68434" stroke="black"/>
<path d="M730.451 4.93262L697.304 4.93262" stroke="black"/>
<path d="M733.123 7.68269L733.119 7.52712L733.106 7.3721L733.085 7.21807L733.055 7.06547L733.017 6.91486L732.971 6.76677L732.917 6.62154L732.854 6.47983L732.784 6.34187L732.707 6.20819L732.622 6.07925L732.531 5.95548L732.432 5.83721L732.328 5.72487L732.217 5.61881L732.101 5.51936L731.979 5.42683L731.853 5.34145L731.722 5.26356L731.587 5.19347L731.449 5.13131L731.306 5.0774L731.162 5.03174L731.016 4.99467L730.866 4.96606L730.716 4.94626L730.565 4.93515L730.451 4.93262" stroke="black"/>
<path d="M729.06 8.123C729.06 8.66986 729.491 9.11318 730.022 9.11318C730.554 9.11318 730.984 8.66986 730.984 8.123C730.984 7.57613 730.554 7.13281 730.022 7.13281C729.491 7.13281 729.06 7.57613 729.06 8.123Z" stroke="black"/>
<path d="M697.142 8.123C697.142 8.66986 697.573 9.11318 698.104 9.11318C698.636 9.11318 699.066 8.66986 699.066 8.123C699.066 7.57613 698.636 7.13281 698.104 7.13281C697.573 7.13281 697.142 7.57613 697.142 8.123Z" stroke="black"/>
<path d="M692.489 67.7548C692.489 68.3017 692.92 68.745 693.452 68.745C693.983 68.745 694.414 68.3017 694.414 67.7548C694.414 67.208 693.983 66.7646 693.452 66.7646C692.92 66.7646 692.489 67.208 692.489 67.7548Z" stroke="black"/>
<path d="M724.407 67.7548C724.407 68.3017 724.838 68.745 725.37 68.745C725.901 68.745 726.332 68.3017 726.332 67.7548C726.332 67.208 725.901 66.7646 725.37 66.7646C724.838 66.7646 724.407 67.208 724.407 67.7548Z" stroke="black"/>
<path d="M692.518 67.7554C692.518 68.2852 692.935 68.7148 693.45 68.7148C693.965 68.7148 694.383 68.2852 694.383 67.7554C694.383 67.2255 693.965 66.7959 693.45 66.7959C692.935 66.7959 692.518 67.2255 692.518 67.7554Z" stroke="black"/>
<path d="M724.436 67.7554C724.436 68.2852 724.853 68.7148 725.368 68.7148C725.883 68.7148 726.301 68.2852 726.301 67.7554C726.301 67.2255 725.883 66.7959 725.368 66.7959C724.853 66.7959 724.436 67.2255 724.436 67.7554Z" stroke="black"/>
<path d="M729.088 8.12255C729.088 8.65244 729.506 9.082 730.021 9.082C730.536 9.082 730.953 8.65244 730.953 8.12255C730.953 7.59265 730.536 7.16309 730.021 7.16309C729.506 7.16309 729.088 7.59265 729.088 8.12255Z" stroke="black"/>
<path d="M697.17 8.12255C697.17 8.65244 697.588 9.082 698.103 9.082C698.618 9.082 699.035 8.65244 699.035 8.12255C699.035 7.59265 698.618 7.16309 698.103 7.16309C697.588 7.16309 697.17 7.59265 697.17 8.12255Z" stroke="black"/>
<path d="M693.223 5.13379L693.072 5.13819L692.921 5.15139L692.771 5.17329L692.623 5.20387L692.476 5.24304L692.333 5.29068L692.192 5.34668L692.054 5.41071L691.919 5.48266L691.79 5.56232L691.665 5.64946L691.544 5.74374L691.43 5.84474L691.32 5.95245L691.217 6.06621L691.121 6.1858L691.031 6.3109L690.947 6.44094L690.871 6.57572L690.804 6.71456L690.743 6.85726L690.691 7.00315L690.647 7.15189L690.61 7.30295L690.583 7.45599L690.563 7.61035L690.553 7.76548L690.55 7.88386" stroke="black"/>
<path d="M691.481 8.123C691.481 8.67903 691.919 9.12978 692.459 9.12978C692.999 9.12978 693.437 8.67903 693.437 8.123C693.437 7.56697 692.999 7.11621 692.459 7.11621C691.919 7.11621 691.481 7.56697 691.481 8.123Z" stroke="black"/>
<path d="M693.22 5.13379L696.299 5.13379" stroke="black"/>
<path d="M690.547 12.701L690.547 7.88379" stroke="black"/>
<path d="M730.253 70.7432L730.404 70.7388L730.555 70.7256L730.705 70.7037L730.852 70.6732L730.999 70.6339L731.143 70.5862L731.284 70.5304L731.422 70.4663L731.556 70.3943L731.685 70.3146L731.812 70.2276L731.931 70.1333L732.047 70.0322L732.156 69.9246L732.259 69.8108L732.356 69.6912L732.446 69.5661L732.528 69.4361L732.604 69.3013L732.672 69.1625L732.732 69.0198L732.785 68.8739L732.83 68.7251L732.866 68.574L732.894 68.421L732.913 68.2667L732.924 68.1114L732.926 67.9932" stroke="black"/>
<path d="M730.039 67.7539C730.039 68.3099 730.477 68.7606 731.018 68.7606C731.558 68.7606 731.996 68.3099 731.996 67.7539C731.996 67.1978 731.558 66.7471 731.018 66.7471C730.477 66.7471 730.039 67.1978 730.039 67.7539Z" stroke="black"/>
<path d="M730.252 70.7432L727.175 70.7432" stroke="black"/>
<path d="M732.926 63.1758L732.926 67.9931" stroke="black" stroke-width="0.8"/>
<rect x="754.504" y="18.9062" width="40.0969" height="40.0969" rx="4" fill="white" stroke="black" stroke-width="0.8"/>
<rect x="887.07" y="53.8008" width="3.38428" height="6.54684" rx="1" fill="white" stroke="black" stroke-width="0.8"/>
<rect x="433.504" y="25.5928" width="3.38428" height="6.54684" rx="1" transform="rotate(-90 433.504 25.5928)" fill="white" stroke="black" stroke-width="0.8"/>
<rect x="421.314" y="25.5928" width="3.38428" height="6.54684" rx="1" transform="rotate(-90 421.314 25.5928)" fill="white" stroke="black" stroke-width="0.8"/>
<rect x="389" y="61.7646" width="36.1715" height="57.0074" rx="4" transform="rotate(-90 389 61.7646)" fill="white" stroke="black" stroke-width="0.8"/>
<rect x="470.066" y="7.17578" width="38.5122" height="64.2254" rx="4" fill="white" stroke="black" stroke-width="0.8"/>
<rect x="529.961" y="18.9062" width="72.1745" height="40.0969" rx="5" fill="white" stroke="black" stroke-width="0.8"/>
<circle cx="784.871" cy="28.6376" r="4.40969" stroke="black" stroke-width="0.8"/>
<circle cx="784.871" cy="28.6376" r="4.40969" fill="#BABABA" stroke="black" stroke-width="0.8"/>
<circle cx="489.324" cy="62.375" r="3.16172" fill="#BABABA" stroke="black" stroke-width="0.8"/>
<rect x="554.42" y="45.7701" width="23.2582" height="7.21938" rx="3.60969" fill="#BABABA" stroke="black" stroke-width="0.8"/>
<rect x="405.875" y="52.6295" width="23.2582" height="2.81841" rx="1.40921" fill="#BABABA" stroke="black" stroke-width="0.8"/>
<line x1="819.805" y1="21.5951" x2="887.071" y2="21.5951" stroke="black" stroke-width="0.8"/>
<line x1="819.805" y1="29.5951" x2="887.071" y2="29.5951" stroke="black" stroke-width="0.8"/>
<line x1="626.075" y1="49.0895" x2="627.672" y2="53.8463" stroke="black" stroke-width="0.8"/>
<path d="M819.805 21.9951H887.071V28.9936H819.805V21.9951Z" fill="#BABABA"/>
<rect x="819.805" y="10.2812" width="67.2661" height="57.0074" rx="4" stroke="black" stroke-width="0.8"/>
<line y1="31.3672" x2="389" y2="31.3672" stroke="#DDDDDD"/>
<line x1="888" y1="31.3672" x2="1282" y2="31.3672" stroke="#DDDDDD"/>
<line y1="49.3672" x2="389" y2="49.3672" stroke="#DDDDDD"/>
<line x1="888" y1="49.3672" x2="1282" y2="49.3672" stroke="#DDDDDD"/>
</svg>
