<svg width="39" height="39" viewBox="0 0 39 39" fill="none" xmlns="http://www.w3.org/2000/svg">
<g clip-path="url(#clip0_5606_15563)">
<path d="M37.2838 35.0263H37.6432L36.9545 33.9845C37.3757 33.9845 37.5989 33.7169 37.6021 33.3892C37.6021 33.3765 37.6021 33.3622 37.6005 33.3496C37.6005 32.9031 37.3313 32.6893 36.7787 32.6893H35.8857V35.0263H36.2214V34.0082H36.6347L37.2838 35.0263ZM36.6109 33.7438H36.2214V32.9537H36.7154C36.9703 32.9537 37.2617 32.9949 37.2617 33.329C37.2617 33.7122 36.9687 33.7438 36.6109 33.7438Z" fill="white"/>
<path d="M28.2417 31.0506H23.4806V23.5947C23.4806 21.8166 23.4489 19.5287 21.0043 19.5287C18.5248 19.5287 18.1448 21.4651 18.1448 23.4664V31.0506H13.3853V15.7176H17.9563V17.8124H18.0197C18.9523 16.2195 20.6844 15.2679 22.529 15.336C27.355 15.336 28.2433 18.5106 28.2433 22.6384L28.2417 31.0506ZM8.01301 13.6213C6.48667 13.6213 5.25009 12.3847 5.25009 10.8584C5.25009 9.33202 6.48667 8.09544 8.01301 8.09544C9.53934 8.09544 10.7759 9.33202 10.7759 10.8584C10.7759 12.3847 9.53934 13.6213 8.01301 13.6213ZM10.3928 31.0506H5.62692V15.7176H10.3928V31.0506ZM30.6151 3.67477H3.23451C1.94092 3.66052 0.880091 4.69761 0.864258 5.99119V33.4842C0.880091 34.7794 1.94092 35.8164 3.23451 35.8022H30.6151C31.9118 35.818 32.9774 34.7809 32.9948 33.4842V5.98961C32.9758 4.69286 31.9103 3.65577 30.6151 3.67319" fill="white"/>
<path d="M36.6527 31.6491C35.443 31.6602 34.4709 32.6514 34.4835 33.861C34.4946 35.0707 35.4858 36.0429 36.6954 36.0302C37.9051 36.0191 38.8773 35.0279 38.8646 33.8183C38.8535 32.6244 37.8877 31.6602 36.6954 31.6491H36.6527ZM36.7034 35.7784C35.6425 35.7959 34.7179 34.9519 34.7004 33.8911C34.683 32.8303 35.5285 31.9563 36.5894 31.9389C37.6502 31.9214 38.5242 32.7669 38.5416 33.8278C38.5416 33.8389 38.5416 33.8484 38.5416 33.8594C38.5638 34.8965 37.7404 35.7563 36.7034 35.7784H36.6543H36.7034Z" fill="white"/>
</g>
<defs>
<clipPath id="clip0_5606_15563">
<rect width="38" height="38" fill="white" transform="translate(0.864258 0.851685)"/>
</clipPath>
</defs>
</svg>
