<svg width="26" height="27" viewBox="0 0 26 27" fill="none" xmlns="http://www.w3.org/2000/svg">
<g clip-path="url(#clip0_4916_1511)">
<path d="M13.0003 26.5961L12.2376 25.9515C9.85211 23.9332 2.06836 16.9295 2.06836 11.5291C2.06836 5.50142 6.97261 0.597168 13.0003 0.597168C19.0279 0.597168 23.9322 5.50142 23.9322 11.5291C23.9322 16.9295 16.1484 23.9332 13.7629 25.9515L13.0003 26.5961ZM13.0003 1.6805C7.56953 1.6805 3.15169 6.09833 3.15169 11.5291C3.15169 16.5904 11.3027 23.7415 12.9364 25.1249L13.0003 25.1791L13.0642 25.1249C14.6979 23.7426 22.8489 16.5904 22.8489 11.5291C22.8489 6.09833 18.431 1.6805 13.0003 1.6805Z" fill="#303031"/>
<path d="M13.0003 15.7643C10.6105 15.7643 8.66699 13.8208 8.66699 11.431C8.66699 9.04116 10.6105 7.09766 13.0003 7.09766C15.3902 7.09766 17.3337 9.04116 17.3337 11.431C17.3337 13.8208 15.3902 15.7643 13.0003 15.7643ZM13.0003 8.18099C11.2085 8.18099 9.75033 9.63916 9.75033 11.431C9.75033 13.2228 11.2085 14.681 13.0003 14.681C14.7922 14.681 16.2503 13.2228 16.2503 11.431C16.2503 9.63916 14.7922 8.18099 13.0003 8.18099Z" fill="#303031"/>
</g>
<defs>
<clipPath id="clip0_4916_1511">
<rect width="26" height="26" fill="white" transform="translate(0 0.597168)"/>
</clipPath>
</defs>
</svg>
