<svg width="44" height="44" viewBox="0 0 44 44" fill="none" xmlns="http://www.w3.org/2000/svg">
<g clip-path="url(#clip0_5606_15571)">
<path d="M22.2887 43.7553L21.0397 42.6848C19.318 41.2431 4.28418 28.2593 4.28418 18.7621C4.28418 8.81847 12.3451 0.757568 22.2887 0.757568C32.2322 0.757568 40.2932 8.81847 40.2932 18.7621C40.2932 28.2594 25.2594 41.2432 23.5447 42.6919L22.2887 43.7553ZM22.2887 4.65066C14.4989 4.65948 8.18618 10.9722 8.17736 18.762C8.17736 24.7284 17.4267 34.2596 22.2887 38.622C27.1507 34.2578 36.4 24.7212 36.4 18.762C36.3912 10.9722 30.0786 4.65957 22.2887 4.65066Z" fill="white"/>
<path d="M22.2882 25.8989C18.3466 25.8989 15.1514 22.7036 15.1514 18.7621C15.1514 14.8205 18.3466 11.6252 22.2882 11.6252C26.2297 11.6252 29.425 14.8205 29.425 18.7621C29.425 22.7036 26.2298 25.8989 22.2882 25.8989ZM22.2882 15.1936C20.3174 15.1936 18.7198 16.7912 18.7198 18.762C18.7198 20.7328 20.3174 22.3304 22.2882 22.3304C24.259 22.3304 25.8566 20.7328 25.8566 18.762C25.8566 16.7912 24.2591 15.1936 22.2882 15.1936Z" fill="white"/>
</g>
<defs>
<clipPath id="clip0_5606_15571">
<rect width="43" height="43" fill="white" transform="translate(0.864258 0.740967)"/>
</clipPath>
</defs>
</svg>
