<svg width="125" height="36" viewBox="0 0 125 36" fill="none" xmlns="http://www.w3.org/2000/svg">
<rect x="0.0205078" width="124.515" height="36" rx="18" fill="url(#paint0_linear_4844_1509)"/>
<path d="M43.0166 22V13.4688H44.5283L47.0596 19.8027C47.1064 19.9199 47.1514 20.043 47.1943 20.1719C47.2412 20.2969 47.2822 20.418 47.3174 20.5352H47.3643C47.3994 20.418 47.4385 20.2969 47.4814 20.1719C47.5244 20.043 47.5693 19.9199 47.6162 19.8027L50.1299 13.4688H51.665V22H50.5459V15.8242C50.5459 15.707 50.5479 15.5762 50.5518 15.4316C50.5596 15.2832 50.5713 15.1504 50.5869 15.0332H50.5342C50.5029 15.1504 50.4619 15.2832 50.4111 15.4316C50.3643 15.5762 50.3174 15.707 50.2705 15.8242L47.8213 22H46.8252L44.3584 15.8242C44.3115 15.707 44.2627 15.5762 44.2119 15.4316C44.165 15.2832 44.1318 15.1504 44.1123 15.0332H44.0537C44.0693 15.1504 44.0791 15.2832 44.083 15.4316C44.0908 15.5762 44.0947 15.707 44.0947 15.8242V22H43.0166ZM53.1885 20.166C53.1885 19.5332 53.4424 19.041 53.9502 18.6895C54.4619 18.334 55.1123 18.1562 55.9014 18.1562H57.3428V17.7109C57.3428 17.3438 57.2432 17.0469 57.0439 16.8203C56.8447 16.5898 56.5029 16.4746 56.0186 16.4746C55.5342 16.4746 55.1865 16.5723 54.9756 16.7676C54.7686 16.9629 54.665 17.1895 54.665 17.4473V17.4766H53.5576V17.4473C53.5576 16.9512 53.7822 16.5176 54.2314 16.1465C54.6807 15.7754 55.2861 15.5898 56.0479 15.5898C56.8135 15.5898 57.4053 15.7676 57.8232 16.123C58.2451 16.4785 58.4561 17.0078 58.4561 17.7109V20.5938C58.4561 20.8477 58.4756 21.0879 58.5146 21.3145C58.5537 21.5371 58.6104 21.7344 58.6846 21.9062V22H57.6064C57.5479 21.9023 57.4951 21.7734 57.4482 21.6133C57.4053 21.4531 57.3779 21.2949 57.3662 21.1387C57.2178 21.3965 56.9756 21.625 56.6396 21.8242C56.3076 22.0195 55.8779 22.1172 55.3506 22.1172C54.7529 22.1172 54.2432 21.9492 53.8213 21.6133C53.3994 21.2773 53.1885 20.7949 53.1885 20.166ZM54.3018 20.1074C54.3018 20.459 54.4072 20.7344 54.6182 20.9336C54.8291 21.1289 55.1553 21.2266 55.5967 21.2266C56.042 21.2266 56.4443 21.0781 56.8037 20.7812C57.1631 20.4844 57.3428 20.1699 57.3428 19.8379V18.9531H56.0186C55.4561 18.9531 55.0283 19.0566 54.7354 19.2637C54.4463 19.4707 54.3018 19.752 54.3018 20.1074ZM59.5166 24.4375V23.4883C59.6221 23.5195 59.7373 23.5449 59.8623 23.5645C59.9912 23.584 60.1162 23.5938 60.2373 23.5938C60.5186 23.5938 60.7588 23.5 60.958 23.3125C61.1572 23.1289 61.3779 22.6797 61.6201 21.9648V21.959L59.2705 15.7656H60.3604L61.8545 19.8496C61.9092 20.0059 61.958 20.1562 62.001 20.3008C62.0479 20.4414 62.0869 20.5762 62.1182 20.7051H62.1533C62.1846 20.5762 62.2236 20.4414 62.2705 20.3008C62.3213 20.1562 62.3721 20.0059 62.4229 19.8496L63.8174 15.7656H64.8721L62.3115 22.8203C62.1084 23.3672 61.8408 23.793 61.5088 24.0977C61.1807 24.4023 60.7764 24.5547 60.2959 24.5547C60.1357 24.5547 59.9932 24.5449 59.8682 24.5254C59.7471 24.5059 59.6299 24.4766 59.5166 24.4375ZM65.3057 20.166C65.3057 19.5332 65.5596 19.041 66.0674 18.6895C66.5791 18.334 67.2295 18.1562 68.0186 18.1562H69.46V17.7109C69.46 17.3438 69.3604 17.0469 69.1611 16.8203C68.9619 16.5898 68.6201 16.4746 68.1357 16.4746C67.6514 16.4746 67.3037 16.5723 67.0928 16.7676C66.8857 16.9629 66.7822 17.1895 66.7822 17.4473V17.4766H65.6748V17.4473C65.6748 16.9512 65.8994 16.5176 66.3486 16.1465C66.7979 15.7754 67.4033 15.5898 68.165 15.5898C68.9307 15.5898 69.5225 15.7676 69.9404 16.123C70.3623 16.4785 70.5732 17.0078 70.5732 17.7109V20.5938C70.5732 20.8477 70.5928 21.0879 70.6318 21.3145C70.6709 21.5371 70.7275 21.7344 70.8018 21.9062V22H69.7236C69.665 21.9023 69.6123 21.7734 69.5654 21.6133C69.5225 21.4531 69.4951 21.2949 69.4834 21.1387C69.335 21.3965 69.0928 21.625 68.7568 21.8242C68.4248 22.0195 67.9951 22.1172 67.4678 22.1172C66.8701 22.1172 66.3604 21.9492 65.9385 21.6133C65.5166 21.2773 65.3057 20.7949 65.3057 20.166ZM66.4189 20.1074C66.4189 20.459 66.5244 20.7344 66.7354 20.9336C66.9463 21.1289 67.2725 21.2266 67.7139 21.2266C68.1592 21.2266 68.5615 21.0781 68.9209 20.7812C69.2803 20.4844 69.46 20.1699 69.46 19.8379V18.9531H68.1357C67.5732 18.9531 67.1455 19.0566 66.8525 19.2637C66.5635 19.4707 66.4189 19.752 66.4189 20.1074ZM75.3486 22V13.4688H78.2256C79.1045 13.4688 79.7939 13.6504 80.2939 14.0137C80.7979 14.377 81.0498 14.9492 81.0498 15.7305C81.0498 16.1992 80.9287 16.5801 80.6865 16.873C80.4482 17.166 80.1494 17.375 79.79 17.5V17.5234C80.2275 17.6484 80.585 17.8789 80.8623 18.2148C81.1396 18.5508 81.2783 18.9922 81.2783 19.5391C81.2783 20.3203 81.0146 20.9258 80.4873 21.3555C79.9639 21.7852 79.2686 22 78.4014 22H75.3486ZM76.4736 21.0508H78.4014C78.999 21.0508 79.4385 20.9141 79.7197 20.6406C80.001 20.3672 80.1416 19.998 80.1416 19.5332C80.1416 19.0684 80.001 18.7012 79.7197 18.4316C79.4385 18.1621 78.999 18.0273 78.4014 18.0273H76.4736V21.0508ZM76.4736 17.0898H78.2256C78.8232 17.0898 79.2529 16.9707 79.5146 16.7324C79.7803 16.4941 79.9131 16.1621 79.9131 15.7363C79.9131 15.3105 79.7803 14.9844 79.5146 14.7578C79.2529 14.5312 78.8232 14.418 78.2256 14.418H76.4736V17.0898ZM82.3623 18.9766V18.7891C82.3623 17.8477 82.6338 17.0801 83.1768 16.4863C83.7197 15.8887 84.4443 15.5898 85.3506 15.5898C86.2568 15.5898 86.9814 15.8887 87.5244 16.4863C88.0674 17.0801 88.3389 17.8477 88.3389 18.7891V18.9766C88.3389 19.918 88.0674 20.6875 87.5244 21.2852C86.9814 21.8789 86.2568 22.1758 85.3506 22.1758C84.4443 22.1758 83.7197 21.8789 83.1768 21.2852C82.6338 20.6875 82.3623 19.918 82.3623 18.9766ZM83.499 18.7891V18.9766C83.499 19.6133 83.6533 20.1523 83.9619 20.5938C84.2744 21.0352 84.7373 21.2559 85.3506 21.2559C85.9639 21.2559 86.4248 21.0352 86.7334 20.5938C87.042 20.1523 87.1963 19.6133 87.1963 18.9766V18.7891C87.1963 18.1484 87.042 17.6074 86.7334 17.166C86.4248 16.7246 85.9639 16.5039 85.3506 16.5039C84.7373 16.5039 84.2744 16.7246 83.9619 17.166C83.6533 17.6074 83.499 18.1484 83.499 18.7891ZM89.3643 20.166C89.3643 19.5332 89.6182 19.041 90.126 18.6895C90.6377 18.334 91.2881 18.1562 92.0771 18.1562H93.5186V17.7109C93.5186 17.3438 93.4189 17.0469 93.2197 16.8203C93.0205 16.5898 92.6787 16.4746 92.1943 16.4746C91.71 16.4746 91.3623 16.5723 91.1514 16.7676C90.9443 16.9629 90.8408 17.1895 90.8408 17.4473V17.4766H89.7334V17.4473C89.7334 16.9512 89.958 16.5176 90.4072 16.1465C90.8564 15.7754 91.4619 15.5898 92.2236 15.5898C92.9893 15.5898 93.5811 15.7676 93.999 16.123C94.4209 16.4785 94.6318 17.0078 94.6318 17.7109V20.5938C94.6318 20.8477 94.6514 21.0879 94.6904 21.3145C94.7295 21.5371 94.7861 21.7344 94.8604 21.9062V22H93.7822C93.7236 21.9023 93.6709 21.7734 93.624 21.6133C93.5811 21.4531 93.5537 21.2949 93.542 21.1387C93.3936 21.3965 93.1514 21.625 92.8154 21.8242C92.4834 22.0195 92.0537 22.1172 91.5264 22.1172C90.9287 22.1172 90.4189 21.9492 89.9971 21.6133C89.5752 21.2773 89.3643 20.7949 89.3643 20.166ZM90.4775 20.1074C90.4775 20.459 90.583 20.7344 90.7939 20.9336C91.0049 21.1289 91.3311 21.2266 91.7725 21.2266C92.2178 21.2266 92.6201 21.0781 92.9795 20.7812C93.3389 20.4844 93.5186 20.1699 93.5186 19.8379V18.9531H92.1943C91.6318 18.9531 91.2041 19.0566 90.9111 19.2637C90.6221 19.4707 90.4775 19.752 90.4775 20.1074ZM95.9795 18.9766V18.7891C95.9795 17.8789 96.2197 17.1289 96.7002 16.5391C97.1807 15.9453 97.8232 15.6484 98.6279 15.6484C99.0693 15.6484 99.4463 15.7266 99.7588 15.8828C100.075 16.0352 100.325 16.2402 100.509 16.498V13H101.622V22H100.614L100.567 21.1855H100.532C100.372 21.4434 100.124 21.6641 99.7881 21.8477C99.4561 22.0273 99.0693 22.1172 98.6279 22.1172C97.8232 22.1172 97.1807 21.8203 96.7002 21.2266C96.2197 20.6328 95.9795 19.8828 95.9795 18.9766ZM97.1162 18.9766C97.1162 19.6016 97.2568 20.1289 97.5381 20.5586C97.8232 20.9844 98.2666 21.1973 98.8682 21.1973C99.2744 21.1973 99.6182 21.0898 99.8994 20.875C100.181 20.6562 100.384 20.4102 100.509 20.1367V17.6289C100.384 17.3516 100.181 17.1055 99.8994 16.8906C99.6182 16.6719 99.2744 16.5625 98.8682 16.5625C98.2666 16.5625 97.8232 16.7773 97.5381 17.207C97.2568 17.6328 97.1162 18.1602 97.1162 18.7891V18.9766ZM102.958 20.166H104.071V20.1953C104.071 20.5508 104.206 20.8203 104.476 21.0039C104.749 21.1836 105.106 21.2734 105.548 21.2734C105.993 21.2734 106.343 21.1875 106.597 21.0156C106.851 20.8398 106.978 20.6152 106.978 20.3418C106.978 20.0645 106.876 19.8516 106.673 19.7031C106.47 19.5547 106.024 19.4043 105.337 19.252C104.646 19.0996 104.104 18.8789 103.714 18.5898C103.327 18.2969 103.134 17.8926 103.134 17.377C103.134 16.8652 103.349 16.4395 103.778 16.0996C104.208 15.7598 104.786 15.5898 105.513 15.5898C106.239 15.5898 106.821 15.7617 107.259 16.1055C107.7 16.4453 107.921 16.9023 107.921 17.4766V17.5059H106.813V17.459C106.813 17.1582 106.708 16.9219 106.497 16.75C106.286 16.5781 105.958 16.4922 105.513 16.4922C105.067 16.4922 104.743 16.5723 104.54 16.7324C104.337 16.8887 104.235 17.084 104.235 17.3184C104.235 17.5566 104.347 17.7461 104.569 17.8867C104.796 18.0234 105.253 18.168 105.94 18.3203C106.632 18.4727 107.161 18.6992 107.528 19C107.899 19.3008 108.085 19.7266 108.085 20.2773C108.085 20.832 107.872 21.2871 107.446 21.6426C107.024 21.998 106.392 22.1758 105.548 22.1758C104.704 22.1758 104.062 21.9961 103.62 21.6367C103.179 21.2734 102.958 20.793 102.958 20.1953V20.166Z" fill="white"/>
<g clip-path="url(#clip0_4844_1509)">
<path d="M19.3538 11H21.1038C22.3925 11 23.4372 12.0447 23.4372 13.3333V15.0833C23.4372 16.372 22.3925 17.4166 21.1038 17.4166H19.3538C18.0652 17.4167 17.0205 16.372 17.0205 15.0833V13.3333C17.0205 12.0447 18.0652 11 19.3538 11Z" fill="white"/>
<path d="M26.9373 11H28.6873C29.976 11 31.0207 12.0447 31.0207 13.3333V15.0833C31.0207 16.372 29.976 17.4166 28.6873 17.4166H26.9373C25.6487 17.4166 24.604 16.372 24.604 15.0833V13.3333C24.604 12.0447 25.6486 11 26.9373 11Z" fill="white"/>
<path d="M19.3538 18.5833H21.1038C22.3925 18.5833 23.4372 19.628 23.4372 20.9166V22.6666C23.4372 23.9553 22.3925 25 21.1038 25H19.3538C18.0652 25 17.0205 23.9553 17.0205 22.6667V20.9167C17.0205 19.628 18.0652 18.5833 19.3538 18.5833Z" fill="white"/>
<path d="M26.9373 18.5833H28.6873C29.976 18.5833 31.0207 19.628 31.0207 20.9166V22.6666C31.0207 23.9553 29.976 25 28.6873 25H26.9373C25.6487 25 24.604 23.9553 24.604 22.6667V20.9167C24.604 19.628 25.6486 18.5833 26.9373 18.5833Z" fill="white"/>
</g>
<defs>
<linearGradient id="paint0_linear_4844_1509" x1="3.59266" y1="27.5" x2="119.798" y2="6.69279" gradientUnits="userSpaceOnUse">
<stop stop-color="#FF5F9B"/>
<stop offset="1" stop-color="#2F67FF"/>
</linearGradient>
<clipPath id="clip0_4844_1509">
<rect width="14" height="14" fill="white" transform="translate(17.0205 11)"/>
</clipPath>
</defs>
</svg>
