<svg width="39" height="39" viewBox="0 0 39 39" fill="none" xmlns="http://www.w3.org/2000/svg">
<g clip-path="url(#clip0_5606_15557)">
<path fill-rule="evenodd" clip-rule="evenodd" d="M32.7626 5.67965C29.2065 2.12032 24.4786 0.158566 19.442 0.156982C9.06329 0.156982 0.616208 8.60248 0.611458 18.986C0.609875 22.3046 1.47754 25.5441 3.12579 28.4005L0.453125 38.157L10.4345 35.5382C13.1847 37.0392 16.2817 37.8292 19.4325 37.8308H19.4405C29.8176 37.8308 38.2663 29.3837 38.271 19.0002C38.2742 13.97 36.3172 9.2374 32.7626 5.67965ZM19.442 34.6499H19.4357C16.6269 34.6499 13.8735 33.8946 11.47 32.4681L10.8984 32.1292L4.97513 33.6825L6.55688 27.9065L6.18479 27.3143C4.61729 24.8222 3.79079 21.9421 3.79238 18.986C3.79554 10.3568 10.8176 3.33632 19.45 3.33632C23.63 3.33632 27.5598 4.96715 30.5143 7.92482C33.4688 10.8841 35.0949 14.8155 35.0933 18.9971C35.0885 27.6294 28.068 34.6499 19.442 34.6499ZM28.0269 22.9285C27.5566 22.6926 25.2434 21.5541 24.8111 21.3974C24.3805 21.2407 24.067 21.1615 23.7519 21.6317C23.4368 22.102 22.5375 23.1628 22.262 23.4779C21.988 23.7914 21.7125 23.831 21.2423 23.5951C20.772 23.3591 19.2552 22.8636 17.4581 21.2596C16.06 20.012 15.1148 18.4714 14.8409 17.9996C14.567 17.5277 14.8124 17.2744 15.0467 17.0401C15.2589 16.8295 15.517 16.4907 15.7529 16.2151C15.9904 15.9428 16.068 15.7465 16.2263 15.4314C16.383 15.1179 16.3055 14.8424 16.1867 14.6065C16.068 14.3722 15.1275 12.0557 14.7364 11.1136C14.3548 10.1953 13.9669 10.3204 13.6771 10.3061C13.4032 10.2919 13.0897 10.2903 12.7746 10.2903C12.4611 10.2903 11.9513 10.4075 11.5206 10.8793C11.09 11.3511 9.87396 12.4896 9.87396 14.8044C9.87396 17.1208 11.5602 19.3581 11.7945 19.6716C12.0289 19.9851 15.1116 24.7382 19.8315 26.776C20.9541 27.2605 21.8313 27.5502 22.5137 27.7671C23.641 28.125 24.667 28.0743 25.4777 27.954C26.3818 27.8194 28.2612 26.8156 28.6539 25.7167C29.0465 24.6179 29.0465 23.6742 28.9278 23.4795C28.8106 23.2816 28.4971 23.1644 28.0269 22.9285Z" fill="white"/>
</g>
<defs>
<clipPath id="clip0_5606_15557">
<rect width="38" height="38" fill="white" transform="translate(0.363281 0.156982)"/>
</clipPath>
</defs>
</svg>
